<?xml version="1.0" encoding="UTF-8" standalone="no"?>
<svg
   xmlns:dc="http://purl.org/dc/elements/1.1/"
   xmlns:cc="http://creativecommons.org/ns#"
   xmlns:rdf="http://www.w3.org/1999/02/22-rdf-syntax-ns#"
   xmlns:svg="http://www.w3.org/2000/svg"
   xmlns="http://www.w3.org/2000/svg"
   xmlns:sodipodi="http://sodipodi.sourceforge.net/DTD/sodipodi-0.dtd"
   xmlns:inkscape="http://www.inkscape.org/namespaces/inkscape"
   version="1.0"
   width="597.96875"
   height="503.09164"
   viewBox="0 0 5979.6875 5030.9164"
   preserveAspectRatio="xMidYMid meet"
   id="svg554"
   sodipodi:docname="logo-square-white.svg"
   inkscape:version="0.92.4 (5da689c313, 2019-01-14)">
  <metadata
     id="metadata560">
    <rdf:RDF>
      <cc:Work
         rdf:about="">
        <dc:format>image/svg+xml</dc:format>
        <dc:type
           rdf:resource="http://purl.org/dc/dcmitype/StillImage" />
      </cc:Work>
    </rdf:RDF>
  </metadata>
  <defs
     id="defs558" />
  <sodipodi:namedview
     pagecolor="#ffffff"
     bordercolor="#666666"
     borderopacity="1"
     objecttolerance="10"
     gridtolerance="10"
     guidetolerance="10"
     inkscape:pageopacity="0"
     inkscape:pageshadow="2"
     inkscape:window-width="1920"
     inkscape:window-height="1001"
     id="namedview556"
     showgrid="false"
     inkscape:zoom="0.77631579"
     inkscape:cx="562.77581"
     inkscape:cy="142.89173"
     inkscape:window-x="-9"
     inkscape:window-y="-9"
     inkscape:window-maximized="1"
     inkscape:current-layer="svg554" />
  <path
     style="fill:#211915;stroke:none"
     inkscape:connector-curvature="0"
     id="path441"
     d="m 3059.5716,3663.1453 c -54,-147 -59,-183 -37,-252 19,-63 17,-144 -8,-273 -9,-46 -20,-140 -23,-210 -5,-101 -12,-140 -31,-189 -25,-62 -43,-81 -43,-45 -1,13 -6,10 -27,-13 l -26,-29 -15,22 c -16,24 -50,30 -58,9 -5,-14 -38,-16 -50,-4 -17,17 -26,4 -21,-28 7,-44 -7,-45 -50,-3 -28,27 -33,29 -33,13 0,-15 -3,-16 -12,-7 -17,17 -38,15 -38,-3 0,-9 -6,-12 -15,-9 -11,5 -15,-1 -15,-21 0,-27 -1,-27 -18,-12 -10,10 -24,17 -30,17 -17,0 -32,-35 -32,-75 0,-35 -2,-37 -26,-31 -14,4 -35,4 -46,0 -19,-6 -20,-11 -14,-75 l 7,-69 h -42 c -40,0 -41,-1 -37,-27 3,-16 7,-35 9,-43 3,-12 -5,-14 -40,-12 -46,4 -48,2 -26,-50 6,-14 2,-18 -15,-18 -13,0 -24,-8 -27,-20 -4,-14 -14,-20 -33,-20 -40,0 -51,-19 -44,-74 6,-40 4,-46 -11,-46 -14,0 -16,-6 -11,-32 3,-17 13,-39 21,-48 11,-12 12,-19 4,-27 -8,-8 -8,-17 -1,-30 8,-14 6,-23 -9,-39 -24,-26 -16,-50 18,-59 l 26,-6 -22,-23 c -27,-28 -27,-54 0,-82 20,-21 20,-26 9,-54 -7,-17 -11,-32 -9,-33 2,-1 24,-9 48,-17 59,-20 71,-41 49,-81 -22,-37 -23,-49 -3,-49 10,0 15,-10 15,-33 0,-42 9,-51 29,-33 9,7 26,17 39,20 21,7 22,4 22,-38 0,-39 3,-46 20,-46 11,0 20,-7 20,-15 0,-7 6,-18 14,-22 18,-11 56,-83 56,-108 0,-33 13,-42 58,-42 34,0 50,-6 70,-27 l 27,-26 7,-287.99998 c 5,-246.00004 9,-301.00004 28,-382.00004 12,-52 26,-133 30,-180 10,-117 20,-152 41,-157 11,-3 21,-18.000001 24,-37.000001 9,-44 37,-78.9999999 58,-70.9999999 38,14.9999999 34,164.0000009 -6,262.0000009 -20,46 -29,101 -45,273 -22,221.00004 -21,265.00004 9,444.00004 12,70.99998 29,74.99998 29,6 0,-51 48,-110 132,-164 38,-24 136,-48 144,-35 3,6 12,5 22,-3 13,-11 15,-10 9,10 -4,19 -2,22 10,18 21,-8 55,3 48,15 -4,5 1,12 9,15 21,8 20,22 0,26 -11,2 -18,15 -20,38 -2,19 -6,56 -9,82 l -6,47.99998 31,-6 c 29,-6 30,-5 30,29 0,28 3,35 15,31 8,-4 27,-3 41,0 20,5 25,12 24,34 -5,70 -3,72 46,72 51,0 88,15 81,34 -9,22 97,-36 154,-85 31,-27 67,-70 80,-96 20,-40 34,-52.99998 82,-75.99998 l 58,-28 34,21 c 48,30 45,56.99998 -15,144.99998 -63,90 -71,97 -162,147 -40,22 -66,38 -58,35 8,-2 52,-12 98,-22 103,-22 130,-16 259,63 85,52 114,82 79,82 -9,0 -12,8 -8,25 6,34 -7,31 -69,-15 -62,-47 -73,-49 -65,-15 4,17 2,27 -8,31 -24,9 -52,-13 -80,-61 -15,-25 -28,-45 -30,-45 -2,0 -28,11 -57,24 -30,14 -84,32 -121,42 -38,9 -68,20 -68,25 0,5 5,9 11,9 6,0 9,7 5,15 -3,8 -1,26 5,39 9,18 7,31 -6,56 -17,33 -14,41 19,53 6,2 2,14 -7,27 -21,30 -21,40 -1,40 12,0 15,6 10,23 -19,65 -18,75 3,86 20,11 28,41 14,54 -11,12 -10,61 1,70 7,5 3,14 -12,26 l -22,20 22,16 23,16 -23,17 c -17,13 -20,20 -11,29 9,9 5,18 -18,37 -23,19 -29,32 -25,51 2,15 0,25 -8,25 -8,0 -9,10 -5,30 6,28 5,30 -25,30 -38,0 -49,23 -24,51 17,19 17,20 -3,25 -13,4 -20,11 -16,20 4,10 -3,12 -31,7 l -36,-6 v 40 c 0,53 -27,86 -96,119 -44,21 -54,30 -49,44 5,16 0,19 -32,22 -38,3 -38,3 -35,43 2,22 17,83 35,135 29,87 32,105 30,210 -1,74 -11,165 -27,254 -14,77 -26,150 -26,163 0,14 14,59 30,100 25,62 32,98 39,197 4,67 6,126 4,133 -5,14 -37,23 -84,23 h -36 z" />
  <path
     style="fill:#434141;stroke:none"
     inkscape:connector-curvature="0"
     id="path506"
     d="m 3097.5716,3746.1453 c -6,-11 -8,-20 -5,-20 3,0 -3,-12 -12,-27 -10,-15 -17,-28 -15,-30 1,-2 2,-4 1,-5 0,-2 -2,-13 -5,-26 -2,-13 -12,-40 -22,-60 -22,-46 -28,-123 -11,-153 12,-24 21,-196 11,-214 -18,-30 -40,-197 -46,-355 -2,-48 -10,-91 -23,-120 -31,-69 -36,-84 -34,-95 1,-5 -5,-2 -13,8 -8,11 -12,26 -9,35 2,10 -5,5 -17,-10 -27,-35 -43,-35 -60,-3 l -13,25 -22,-20 c -12,-11 -23,-19 -26,-16 -2,2 -15,6 -29,9 -25,6 -26,4 -22,-28 3,-27 1,-35 -12,-35 -18,0 -56,34 -56,50 0,6 -4,10 -10,10 -5,0 -10,-8 -10,-17 0,-13 -3,-14 -12,-5 -16,16 -28,15 -28,-3 0,-9 -6,-12 -15,-9 -11,5 -15,-1 -15,-25 0,-38 -12,-40 -35,-5 l -17,26 -19,-32 c -11,-17 -17,-35 -14,-41 4,-5 3,-18 0,-29 -5,-15 -12,-18 -36,-13 -38,7 -58,-10 -52,-45 2,-15 7,-44 10,-65 l 5,-39 -35,5 c -50,7 -64,-8 -42,-43 22,-35 15,-43 -32,-37 -47,5 -48,3 -28,-45 5,-12 1,-17 -17,-20 -23,-3 -27,-17 -13,-52 8,-18 7,-18 -19,-1 -23,15 -30,16 -51,5 -22,-12 -24,-18 -20,-62 4,-37 2,-48 -9,-48 -22,0 -30,-19 -16,-35 7,-8 9,-15 4,-15 -4,0 2,-10 14,-23 16,-17 19,-26 11,-34 -8,-8 -7,-17 2,-32 12,-18 11,-23 -9,-41 -28,-26 -28,-38 0,-42 31,-4 36,-37 9,-57 l -21,-16 27,-38 c 23,-32 25,-40 15,-62 -16,-36 -15,-40 12,-41 13,-1 36,-8 52,-15 38,-18 44,-64 14,-97 -19,-20 -16,-27 11,-24 4,1 6,-4 6,-11 0,-7 1,-25 1,-40 l 2,-28 25,19 c 34,27 67,18 65,-17 -4,-55 -1,-64 21,-58 15,4 19,2 15,-9 -3,-7 3,-18 13,-23 19,-10 61,-98 64,-132 1,-16 9,-19 47,-19 46,0 89,-26 100,-60 3,-8 6,-104 6,-211.99998 2,-311.00004 15,-445.00004 48,-523.00004 7,-16 14,-55 15,-85 2,-83 22,-180 38,-180 8,0 13,12 13,30 0,17 4,30 9,30 18,0 21,-18 7,-45 -15,-28 -14,-37.000001 11,-93.000001 17,-38.9999999 43,-39.9999999 51,-2 14,63 2,150.000001 -26,207.000001 -22,42 -26,64 -47,278 -2,17 -7,62 -11,100.00004 -11,96 -10,145 5,250 7,50 15,116 18,146.99998 8,84 23,76 36,-17 9,-62.99998 21,-79.99998 121,-159.99998 53,-42 63,-46 97,-41 25,4 39,2 42,-7 3,-6 6,-3 7,8 l 1,20 16,-20 c 15,-20 15,-20 11,1 -4,17 -1,20 24,16 17,-3 28,0 26,6 -2,6 6,18 17,26 19,15 19,15 -8,16 -20,0 -26,4 -20,13 11,18 11,78 -1,115 -12,36.99998 1,52.99998 35,44.99998 16,-4 19,0 19,26 0,28 3,31 29,31 46,0 62,9 51,29 -5,10 -6,31 -1,47 7,25 12,29 47,30 59,2 86,14 81,35 -6,21 6,18 83,-25 82,-45 139,-96 161,-143 21,-46 52,-79.99998 84,-92.99998 56,-21 62,-21 94,9 l 33,29.99998 -53,76 c -59,86 -116,139 -165,155 -19,7 -34,16 -34,21 0,5 -6,9 -12,9 -7,0 -22,8 -33,16 -19,15 -18,16 15,10 19,-3 50,-8 69,-11 18,-3 41,-10 51,-15 10,-6 39,-10 65,-10 38,0 61,9 138,56 50,31 103,63 117,70 25,14 25,14 3,14 -24,0 -32,25 -10,33 6,2 9,8 4,12 -4,5 -24,-5 -45,-22 -76,-61 -108,-68 -98,-23 4,23 2,30 -10,30 -20,0 -35,-16 -64,-67 -27,-48 -40,-52 -80,-23 -15,11 -30,17 -34,13 -3,-3 -6,-1 -6,4 0,6 -19,14 -42,18 -66,10 -117,27 -129,42 -9,10 -8,13 4,13 11,0 15,9 13,35 -2,19 2,36 8,38 7,3 2,16 -12,35 l -22,31 25,17 c 19,12 23,20 15,29 -6,7 -13,23 -15,35 -3,17 -1,20 16,15 20,-7 20,-6 5,23 -22,42 -17,78 11,91 25,11 30,27 12,33 -16,5 -21,68 -7,85 9,11 7,15 -10,20 -28,7 -29,33 -2,40 11,3 20,10 20,15 0,5 -9,12 -20,15 -20,5 -29,33 -10,33 18,0 11,18 -10,25 -25,8 -48,47 -31,53 19,6 12,32 -9,32 -17,0 -19,3 -10,19 13,25 13,44 -1,36 -5,-4 -21,-4 -35,-1 -17,5 -24,13 -24,32 0,13 7,27 15,30 8,4 12,10 9,16 -3,5 -12,7 -20,4 -8,-3 -14,1 -14,9 0,9 -10,13 -27,12 -26,-2 -28,1 -30,40 -2,50 -30,86 -85,108 -49,19 -70,39 -62,58 4,11 -4,14 -33,13 -35,-1 -38,1 -35,24 1,14 4,39 6,55 1,17 4,33 6,38 1,4 4,12 5,17 1,6 4,12 5,15 1,3 3,8 5,13 1,4 4,14 7,22 35,101 39,129 34,230 -5,104 -10,152 -22,200 -3,14 -7,37 -10,53 -2,15 -6,39 -10,55 -14,62 -8,138 13,177 15,28 36,103 40,145 7,84 10,185 7,195 -3,6 -27,12 -54,14 -40,2 -51,-2 -60,-19 z" />
  <g
     id="layer103"
     transform="translate(-422.42841,-393.85472)"
     style="fill:#6e5f63;stroke:none">
    <path
       d="m 3539,4148 c -18,-14 -75,-166 -90,-238 -7,-33 -5,-56 6,-90 18,-55 15,-189 -8,-305 -15,-79 -31,-255 -28,-306 1,-25 -51,-163 -69,-182 -4,-5 -10,3 -14,18 l -7,26 -19,-23 -20,-23 -24,28 c -19,24 -25,26 -37,15 -18,-18 -59,-20 -79,-5 -13,10 -13,10 -4,-3 17,-22 12,-63 -8,-66 -9,-1 -27,9 -39,22 -26,28 -44,32 -35,7 6,-16 6,-16 -12,0 -23,21 -32,21 -32,1 0,-11 -5,-14 -16,-10 -13,5 -14,1 -9,-24 8,-38 -9,-40 -37,-4 -25,31 -36,22 -46,-37 -7,-43 -8,-44 -51,-47 l -44,-3 7,-42 c 3,-23 8,-51 10,-62 5,-31 -11,-43 -51,-38 -34,5 -35,4 -29,-18 19,-60 0,-82 -47,-57 -17,9 -19,7 -15,-13 3,-13 9,-33 13,-43 7,-16 5,-18 -13,-14 -29,8 -38,-8 -21,-38 17,-33 6,-40 -28,-16 -41,29 -65,14 -63,-41 3,-60 1,-69 -9,-62 -20,12 -20,-15 -1,-51 12,-20 19,-43 16,-51 -3,-8 -2,-23 4,-32 7,-14 4,-23 -10,-36 -26,-24 -25,-33 5,-47 30,-14 32,-29 5,-53 -26,-23 -25,-41 1,-56 18,-9 21,-18 16,-55 -4,-43 -4,-44 29,-50 61,-11 74,-43 49,-122 -6,-17 -4,-21 7,-17 12,5 14,-1 10,-26 -4,-28 -3,-31 14,-24 11,4 35,11 55,15 36,7 36,7 26,-20 -13,-35 -2,-81 18,-74 10,4 15,0 15,-11 0,-9 9,-19 20,-22 11,-3 20,-12 20,-20 0,-7 6,-24 14,-36 8,-12 17,-38 20,-58 6,-32 9,-35 34,-31 34,5 102,-22 103,-40 0,-7 4,-4 8,7 5,11 9,-90 10,-225 1,-135 4,-272 6,-305 5,-70 29,-198 44,-238 6,-16 11,-58 12,-95 0,-37 6,-87 12,-111 15,-54 37,-67 37,-21 0,21 4,30 13,27 7,-2 11,-17 9,-33 -6,-74 -5,-90 8,-112 18,-27 40,-29 40,-3 0,11 4,22 9,25 13,8 -14,156 -37,201 -15,31 -25,91 -42,264 -13,128 -19,239 -15,260 4,20 9,60 10,89 3,67 27,212 34,212 10,0 31,-52 25,-61 -3,-5 -1,-9 4,-9 5,0 23,-20 41,-45 18,-25 30,-45 27,-45 -3,0 -20,19 -37,43 l -32,42 7,-35 c 4,-25 21,-50 61,-87 50,-47 87,-70 70,-43 -3,6 1,7 10,3 12,-4 13,-8 5,-13 -15,-9 -3,-18 39,-30 19,-5 33,-4 40,3 9,9 14,8 21,-3 8,-12 10,-12 10,-1 0,11 3,11 15,1 18,-15 19,-7 3,23 -10,20 -10,21 5,9 12,-11 20,-11 38,-1 21,11 21,12 5,24 -11,9 -13,15 -6,20 5,3 8,10 5,15 -3,5 -1,21 5,37 l 10,28 -21,-28 c -12,-15 -43,-39 -69,-52 -27,-14 -51,-29 -55,-35 -3,-5 -11,-10 -17,-10 -15,0 30,34 79,59 47,23 66,50 57,78 -5,15 -4,15 5,3 14,-19 14,-9 1,26 -12,31 -1,44 39,44 16,0 21,4 18,14 -8,19 16,50 34,44 19,-7 51,10 43,23 -3,5 -3,27 1,49 6,37 8,38 40,33 19,-3 46,-2 60,1 24,6 26,10 20,39 -3,18 -3,27 2,21 4,-6 37,-24 73,-41 73,-35 163,-110 187,-157 38,-76 112,-121 159,-96 40,22 38,44 -8,111 -61,90 -100,125 -184,166 -115,56 -97,67 54,33 110,-24 131,-19 254,57 72,45 87,58 73,65 -13,8 -14,13 -4,24 20,24 -6,15 -30,-10 -24,-25 -79,-56 -100,-56 -8,0 -10,12 -5,36 6,34 5,35 -13,24 -11,-7 -32,-32 -47,-56 -15,-24 -32,-46 -37,-49 -5,-4 -28,5 -51,19 -24,13 -79,34 -123,46 -99,26 -117,36 -92,51 10,6 17,22 17,39 0,17 5,30 10,30 15,0 -18,60 -33,60 -6,1 0,11 15,23 20,16 25,26 18,37 -15,23 -12,50 5,50 11,0 12,5 5,26 -16,41 -12,70 13,88 21,15 21,16 4,29 -10,9 -15,21 -11,31 3,9 1,23 -5,30 -10,11 -7,16 11,22 l 23,7 -23,8 c -28,11 -28,34 0,53 l 22,16 h -21 c -26,0 -39,18 -25,32 8,8 2,20 -19,41 -21,21 -27,33 -20,40 15,15 14,27 -4,27 -18,0 -19,14 -5,41 9,17 7,19 -18,19 -38,0 -57,22 -43,49 15,26 14,31 -5,31 -10,0 -14,6 -10,15 6,18 -5,20 -21,4 -18,-18 -33,0 -33,39 0,50 -21,77 -83,108 -73,37 -79,42 -66,65 11,22 6,24 -20,7 -10,-6 -26,-8 -36,-4 -14,5 -16,13 -10,44 4,20 7,46 6,56 0,21 47,174 58,191 14,20 3,212 -19,325 -40,214 -40,204 -3,309 26,74 35,119 41,204 4,59 5,113 1,118 -10,17 -73,22 -90,7 z m -43,-1130 c 4,-7 4,-10 0,-6 -5,4 -19,3 -32,-2 -15,-6 -39,-6 -62,0 l -37,10 40,-4 c 22,-2 49,0 60,4 11,5 21,9 22,9 1,1 5,-5 9,-11 z m -536,-855 c -36,-67 -36,-60 0,19 14,31 26,53 28,48 2,-5 -11,-35 -28,-67 z m 278,-172 c -13,-15 -25,-27 -27,-25 -4,4 39,54 47,54 2,0 -7,-13 -20,-29 z m 144,-38 c 2,-5 18,-20 36,-35 19,-16 30,-28 25,-28 -13,1 -89,70 -76,70 6,0 13,-3 15,-7 z m -176,-109 c -3,-8 -17,-13 -33,-13 l -28,2 28,4 c 22,4 27,10 28,36 1,25 3,27 6,9 3,-13 2,-30 -1,-38 z m 382,29 c -10,-2 -26,-2 -35,0 -10,3 -2,5 17,5 19,0 27,-2 18,-5 z m -562,-149 c -4,-14 -14,-24 -24,-24 -16,1 -16,1 1,11 11,6 17,23 18,47 1,25 3,29 6,13 3,-12 2,-34 -1,-47 z m -57,-15 c -15,-9 -32,-2 -24,11 3,5 13,6 21,3 12,-4 13,-8 3,-14 z m 824,4 c -13,-2 -33,-2 -45,0 -13,2 -3,4 22,4 25,0 35,-2 23,-4 z m 102,-10 c -11,-3 -27,-11 -35,-18 -31,-25 -44,-27 -20,-3 14,14 36,26 50,26 20,0 21,-1 5,-5 z m -859,-95 c 22,-42 17,-47 -7,-8 -12,19 -33,49 -48,65 l -26,30 33,-30 c 19,-16 40,-42 48,-57 z m 326,53 c -9,-16 -18,-28 -21,-26 -4,5 27,55 34,55 2,0 -4,-13 -13,-29 z m 115,-187 c 35,-34 63,-67 63,-74 0,-6 -15,8 -33,31 -29,39 -61,67 -137,122 -24,17 -24,17 10,1 19,-10 63,-45 97,-80 z m -288,31 c 0,-5 -6,1 -14,15 -8,14 -14,30 -14,35 0,6 6,-1 14,-15 8,-14 14,-29 14,-35 z"
       id="path509"
       inkscape:connector-curvature="0" />
  </g>
  <g
     id="layer104"
     transform="translate(-422.42841,-393.85472)"
     style="fill:#89777e;stroke:none">
    <path
       d="m 3543,4152 c -6,-4 -30,-57 -53,-117 -39,-102 -41,-115 -35,-175 12,-114 9,-262 -8,-359 -9,-51 -19,-146 -23,-210 -6,-100 -12,-127 -41,-196 -18,-44 -33,-80 -33,-80 0,-4 112,4 128,9 15,5 22,1 27,-14 3,-11 14,-20 23,-20 13,0 25,27 50,108 43,141 44,240 2,462 -32,174 -32,171 19,298 15,37 23,86 27,167 l 7,114 -27,11 c -32,12 -47,12 -63,2 z"
       id="path512"
       inkscape:connector-curvature="0" />
    <path
       d="m 3223,3057 c -12,-20 -39,-27 -52,-14 -8,8 -11,4 -11,-16 0,-37 -25,-45 -60,-18 -33,24 -45,27 -34,9 4,-7 -2,-5 -13,5 -20,18 -41,9 -29,-12 4,-5 -2,-7 -13,-4 -15,4 -18,0 -14,-21 7,-33 -18,-35 -41,-3 -15,22 -16,22 -31,3 -8,-11 -15,-30 -15,-42 0,-43 -9,-53 -45,-47 -43,7 -50,-6 -35,-68 15,-61 3,-81 -44,-77 -24,2 -30,-1 -27,-12 2,-8 5,-26 5,-40 1,-23 -3,-25 -37,-24 -41,2 -40,5 -21,-57 5,-13 0,-16 -20,-12 -29,6 -33,-6 -14,-37 17,-27 4,-35 -26,-15 -15,10 -33,14 -47,10 -19,-6 -21,-12 -15,-56 6,-43 4,-50 -13,-57 -19,-7 -19,-7 0,-47 11,-22 17,-45 14,-53 -2,-7 1,-22 8,-33 10,-18 9,-23 -10,-36 -30,-20 -29,-31 2,-43 31,-12 32,-33 3,-60 l -22,-20 24,-25 c 18,-20 22,-32 17,-64 -5,-38 -4,-39 30,-46 47,-9 73,-37 67,-72 -3,-15 -9,-32 -15,-38 -13,-14 -11,-25 6,-25 11,0 13,-8 8,-32 -5,-28 -4,-31 13,-24 27,12 88,26 92,21 2,-1 -2,-12 -9,-23 -17,-28 -4,-72 22,-72 15,0 19,-4 15,-16 -4,-10 0,-18 12,-20 17,-5 62,-98 62,-129 0,-11 11,-15 38,-15 20,0 52,-9 70,-20 17,-11 32,-17 32,-15 0,20 -34,78 -69,119 -23,27 -40,51 -37,53 3,3 -1,12 -9,20 -17,17 -34,72 -40,133 -4,39 -3,38 9,-15 22,-92 33,-113 66,-130 40,-21 50,-13 52,43 1,39 2,41 5,13 3,-19 2,-45 -2,-58 -5,-21 -10,-24 -37,-18 l -31,7 35,-43 c 66,-81 66,-82 67,-329 2,-310 12,-418 55,-581 8,-32 12,-74 10,-95 -5,-45 18,-141 32,-134 5,3 8,17 8,32 -2,25 0,26 18,17 16,-9 19,-17 13,-42 -13,-57 2,-127 27,-127 34,0 32,141 -4,220 -21,47 -38,156 -59,380 -11,121 -10,151 6,275 25,189 25,205 9,237 -8,15 -14,31 -14,35 1,4 17,-23 36,-60 19,-37 32,-73 28,-80 -4,-7 -4,-9 1,-5 5,5 23,-15 42,-42 54,-81 120,-145 135,-132 26,21 138,81 138,73 0,-4 -19,-17 -42,-27 -23,-10 -55,-29 -69,-42 -38,-31 -63,-18 -134,74 -32,41 -60,72 -62,70 -10,-10 24,-65 64,-104 46,-42 77,-63 129,-82 22,-9 25,-8 21,4 -4,9 -1,18 5,22 7,4 8,3 4,-4 -4,-7 -1,-12 8,-12 8,0 17,-6 19,-12 4,-10 6,-9 6,1 1,11 4,11 19,0 15,-12 16,-12 5,2 -7,9 -9,20 -5,25 4,4 0,3 -10,-4 -9,-8 -19,-9 -22,-4 -8,13 27,21 46,11 7,-4 20,-3 28,2 13,8 12,11 -3,23 -16,12 -16,14 -2,20 9,3 14,10 10,16 -3,5 -8,25 -10,44 -10,76 -51,132 -145,196 -32,22 -60,49 -63,61 -5,19 -2,18 21,-8 15,-17 51,-48 80,-69 29,-21 67,-59 83,-83 31,-47 35,-48 19,-7 -9,26 -9,26 29,20 30,-5 39,-3 39,7 -3,50 1,55 37,51 l 35,-4 v 43 c 0,56 11,73 40,64 12,-4 37,-4 56,-1 30,6 33,10 28,34 -4,21 -1,29 18,37 13,6 22,15 21,21 -1,6 19,11 45,11 37,1 41,0 17,-6 -32,-7 -75,-31 -75,-43 0,-4 25,-20 55,-35 76,-39 160,-111 181,-156 21,-46 61,-81 110,-97 32,-11 38,-10 60,11 13,12 24,27 24,31 0,16 -86,131 -127,170 -21,20 -68,50 -105,68 -106,49 -83,65 49,34 120,-28 149,-22 285,66 76,50 81,55 43,46 -28,-7 -29,-7 -12,12 28,31 19,38 -11,9 -38,-37 -105,-68 -114,-54 -4,6 -2,19 4,30 5,10 7,22 3,25 -6,6 -30,-18 -80,-83 l -20,-26 -60,30 c -33,17 -69,31 -80,31 -11,0 -45,10 -75,21 -55,20 -272,68 -320,70 -23,2 -24,2 -3,6 13,2 69,-5 124,-16 56,-12 114,-21 130,-21 30,0 46,14 29,25 -8,5 -7,11 1,21 6,8 8,14 4,14 -4,0 -2,7 5,15 11,13 9,20 -14,44 l -27,29 30,10 c 29,10 30,13 19,37 -9,21 -9,31 0,46 7,11 11,23 8,28 -3,4 -7,20 -10,34 -4,21 1,31 20,44 l 25,16 -21,21 c -16,18 -17,25 -8,34 10,10 10,15 -2,23 -13,8 -13,11 3,23 18,14 17,14 -2,21 -25,8 -27,18 -6,35 21,17 19,30 -4,30 -11,0 -23,5 -27,12 -4,6 -3,8 4,4 6,-3 13,2 17,13 4,13 -3,28 -20,45 -21,21 -24,29 -15,46 9,17 8,20 -9,20 -11,0 -23,5 -26,10 -3,6 -2,10 2,10 5,0 13,8 20,19 10,16 9,19 -14,19 -13,0 -32,7 -41,16 -14,13 -14,20 -4,36 17,27 15,33 -8,27 -11,-3 -20,-2 -20,3 0,4 -8,10 -19,13 -13,3 -19,17 -23,51 -7,57 -18,71 -88,106 -31,16 -63,36 -71,46 -9,11 -9,15 -1,10 6,-4 12,-3 12,2 0,6 -15,9 -32,8 -32,-1 -33,1 -34,37 0,38 -6,45 -63,73 -7,4 -23,2 -34,-5 -15,-10 -21,-10 -27,-1 -5,8 -20,10 -43,6 -33,-6 -35,-5 -41,25 -6,30 -7,31 -24,16 -24,-22 -34,-21 -50,3 -14,23 -28,26 -39,7 z m -236,-734 c 19,-46 12,-80 -32,-177 -20,-41 -42,-101 -49,-133 -8,-32 -15,-49 -15,-37 -1,31 28,122 59,184 48,96 47,144 -3,199 l -22,24 23,-12 c 13,-7 30,-29 39,-48 z m 324,-154 c -13,-38 -14,-79 -2,-111 14,-37 12,-43 -15,-40 -16,2 -34,-6 -54,-27 -27,-26 -30,-36 -30,-91 0,-74 -9,-80 -91,-54 -32,10 -55,20 -49,22 5,2 30,-4 55,-13 62,-24 75,-17 75,46 0,75 40,129 96,129 11,0 12,4 4,19 -5,11 -10,37 -10,59 0,40 18,107 27,98 3,-3 0,-19 -6,-37 z m 156,-277 c 28,-7 32,-10 14,-11 -32,-1 -84,32 -121,79 -48,60 -35,59 20,-2 35,-39 61,-59 87,-66 z m 121,-19 c -16,-2 -40,-2 -55,0 -16,2 -3,4 27,4 30,0 43,-2 28,-4 z m -555,-27 c -10,-13 -19,-23 -21,-21 -7,6 19,45 29,45 5,0 2,-11 -8,-24 z m 470,-133 c -13,-2 -35,-2 -50,0 -16,2 -5,4 22,4 28,0 40,-2 28,-4 z m 305,0 c -16,-2 -40,-2 -55,0 -16,2 -3,4 27,4 30,0 43,-2 28,-4 z m -417,-19 c -13,-9 -29,-31 -37,-48 -7,-17 -13,-25 -14,-17 0,23 41,81 58,81 12,0 11,-4 -7,-16 z"
       id="path514"
       inkscape:connector-curvature="0" />
  </g>
  <g
     id="layer105"
     transform="translate(-422.42841,-393.85472)"
     style="fill:#b597a8;stroke:none">
    <path
       d="m 3490,4031 c -33,-95 -41,-129 -37,-163 3,-24 10,-83 17,-133 9,-74 8,-99 -4,-140 -16,-54 -32,-174 -42,-325 -5,-73 -13,-112 -36,-168 -17,-40 -28,-75 -25,-78 10,-10 108,-7 119,4 9,9 14,6 23,-11 20,-41 38,-25 68,63 27,77 30,97 31,220 0,110 -5,162 -28,278 l -28,143 35,102 c 32,89 37,116 39,212 l 3,110 -46,3 -46,3 z"
       id="path517"
       inkscape:connector-curvature="0" />
    <path
       d="m 3220,3049 c -10,-17 -14,-18 -27,-7 -23,18 -27,16 -33,-17 -7,-38 -34,-44 -66,-14 -16,15 -24,18 -24,9 0,-11 -3,-11 -12,-2 -17,17 -28,15 -28,-4 0,-10 -6,-14 -15,-10 -11,4 -15,-2 -15,-24 0,-37 -12,-38 -39,-4 -27,34 -39,24 -47,-36 l -7,-50 -41,2 -41,3 4,-35 c 2,-19 5,-51 5,-70 1,-34 0,-35 -39,-35 -30,0 -39,-4 -36,-15 2,-8 6,-28 9,-44 5,-28 4,-28 -37,-24 -34,3 -40,1 -35,-12 4,-8 9,-25 12,-38 4,-21 2,-22 -23,-16 -25,6 -27,5 -21,-12 24,-57 18,-66 -22,-38 -13,9 -31,13 -43,9 -19,-6 -21,-12 -15,-56 5,-39 4,-51 -9,-55 -17,-7 -10,-50 12,-72 10,-10 11,-18 3,-27 -8,-10 -8,-19 2,-35 11,-19 10,-24 -11,-41 -26,-21 -26,-21 7,-38 27,-15 28,-42 2,-66 -20,-18 -20,-18 7,-47 24,-25 25,-31 16,-63 -10,-32 -9,-35 8,-35 31,0 77,-28 84,-51 4,-11 1,-34 -6,-51 -9,-23 -9,-32 0,-37 6,-4 9,-15 5,-24 -8,-22 4,-41 20,-28 7,6 31,13 55,17 l 43,7 -17,-27 c -14,-22 -16,-32 -7,-51 7,-14 18,-25 27,-25 8,0 15,-7 15,-15 0,-7 6,-18 13,-22 18,-11 57,-94 57,-120 0,-17 8,-21 50,-25 28,-3 59,-13 70,-23 11,-10 20,-15 20,-11 0,17 -43,89 -79,130 -42,49 -73,128 -85,222 -9,64 13,161 58,259 49,105 50,146 9,196 -15,18 -21,30 -13,27 8,-2 26,-20 38,-39 31,-44 25,-103 -17,-186 -66,-132 -77,-254 -33,-370 11,-29 17,-55 13,-59 -3,-4 0,-4 6,0 7,4 22,2 34,-5 31,-16 41,5 34,73 -5,52 -4,58 18,73 23,14 29,14 81,-6 77,-28 86,-23 86,50 0,51 4,63 29,90 16,17 38,31 48,31 18,0 19,6 15,54 -4,53 12,126 28,126 4,0 2,-17 -6,-37 -27,-76 -15,-115 63,-211 47,-58 71,-68 197,-81 60,-7 154,-21 208,-32 103,-21 159,-19 139,4 -7,9 -6,21 4,40 13,25 12,29 -10,56 l -24,28 25,12 c 25,11 26,17 7,68 -3,7 2,16 10,19 12,4 14,11 6,31 -14,37 -11,50 14,73 21,21 21,22 3,35 -15,11 -16,18 -8,28 9,10 8,17 -1,26 -9,10 -8,15 6,25 16,13 16,14 -3,19 -24,6 -26,20 -5,41 21,21 20,23 -27,31 -35,7 -38,9 -18,12 42,8 46,21 16,52 -19,20 -26,35 -22,49 5,15 1,21 -16,25 -22,6 -22,7 -5,24 17,17 16,18 -15,29 -28,10 -33,16 -32,43 1,21 -3,31 -12,31 -8,0 -14,5 -14,10 0,6 -9,10 -20,10 -16,0 -20,7 -20,35 0,56 -25,94 -78,116 -26,11 -56,29 -67,39 -11,10 -32,23 -47,29 -24,9 -28,16 -28,50 0,28 -5,40 -17,45 -10,3 -26,11 -35,18 -15,10 -22,10 -39,0 -15,-9 -24,-10 -33,-3 -7,6 -27,8 -45,5 -29,-6 -31,-4 -37,25 -6,29 -8,30 -24,16 -22,-20 -37,-19 -50,5 -14,26 -26,25 -40,-1 z"
       id="path519"
       inkscape:connector-curvature="0" />
    <path
       d="m 3258,2009 c -28,-16 -42,-50 -48,-114 -6,-71 -16,-76 -95,-49 -75,25 -85,18 -85,-58 0,-78 -9,-93 -45,-84 l -28,7 31,-36 c 66,-74 72,-97 72,-277 0,-271 16,-480 45,-593 14,-55 25,-124 25,-155 0,-30 6,-73 12,-95 l 13,-40 3,38 c 3,40 12,46 32,22 8,-9 10,-28 6,-50 -8,-42 10,-118 27,-112 34,11 26,161 -14,239 -14,28 -25,90 -39,230 -24,230 -25,301 -5,432 18,117 19,190 4,218 -6,11 -9,22 -7,24 3,2 25,-38 51,-89 48,-97 135,-212 168,-222 11,-4 30,2 47,13 15,11 46,29 70,41 34,17 42,27 42,49 0,54 -79,150 -158,191 -58,31 -64,95 -13,150 26,28 32,29 144,36 146,9 417,-9 551,-37 55,-11 116,-18 138,-15 37,5 147,63 198,106 l 25,20 -25,-6 c -25,-6 -25,-6 -6,15 26,30 8,28 -23,-2 -25,-23 -121,-71 -121,-60 0,3 7,19 16,35 22,44 7,50 -25,10 -14,-18 -35,-45 -47,-59 l -21,-25 -34,21 c -19,11 -70,30 -114,42 -44,11 -88,25 -98,31 -24,13 -261,56 -374,68 -50,5 -105,17 -122,25 -29,16 -108,101 -104,114 2,11 -50,12 -69,1 z"
       id="path521"
       inkscape:connector-curvature="0" />
    <path
       d="m 3418,1703 c -36,-6 -68,-47 -68,-88 0,-28 9,-39 70,-84 39,-29 82,-69 96,-89 18,-26 24,-30 19,-14 -6,22 -5,23 29,17 36,-7 36,-7 36,29 v 36 l 39,-6 40,-6 3,53 3,54 46,1 c 64,1 77,8 72,36 -4,19 2,27 24,37 26,13 27,14 8,22 -20,8 -366,10 -417,2 z"
       id="path523"
       inkscape:connector-curvature="0" />
    <path
       d="m 3850,1675 -23,-25 54,-24 c 68,-31 168,-116 186,-158 20,-46 42,-68 91,-89 45,-20 65,-16 92,15 10,13 6,26 -30,80 -58,90 -113,137 -215,185 -102,48 -123,50 -155,16 z"
       id="path525"
       inkscape:connector-curvature="0" />
    <path
       d="m 3240,1360 c 5,-19 13,-37 17,-40 5,-4 28,-25 53,-46 l 45,-39 -55,70 c -73,95 -71,93 -60,55 z"
       id="path527"
       inkscape:connector-curvature="0" />
    <path
       d="m 3493,1281 c -28,-16 -63,-37 -76,-48 l -25,-19 29,-11 c 16,-6 27,-7 23,-2 -13,22 9,29 27,8 10,-12 19,-17 19,-10 0,7 5,9 13,5 7,-4 9,-3 4,2 -5,5 -14,9 -19,9 -6,0 -13,6 -16,14 -3,10 2,13 22,9 14,-3 26,-1 26,3 0,5 8,9 18,10 11,0 12,2 4,6 -10,4 -10,8 -1,19 24,29 1,32 -48,5 z"
       id="path529"
       inkscape:connector-curvature="0" />
  </g>
  <g
     id="layer106"
     transform="translate(-422.42841,-393.85472)"
     style="fill:#e5c0d8;stroke:none">
    <path
       d="m 3491,4031 c -35,-97 -42,-128 -37,-163 26,-206 27,-223 12,-278 -17,-61 -31,-173 -41,-324 -6,-77 -14,-114 -37,-168 -16,-39 -27,-72 -25,-74 9,-10 109,-6 119,4 8,8 14,6 22,-10 22,-44 34,-30 71,84 35,108 37,118 32,218 -2,58 -17,173 -32,257 l -28,152 33,88 c 25,67 36,114 43,196 5,59 7,114 3,122 -3,10 -19,15 -48,15 h -43 z"
       id="path532"
       inkscape:connector-curvature="0" />
    <path
       d="m 3223,3051 c -7,-28 -33,-35 -50,-14 -10,13 -13,14 -10,3 11,-40 -37,-67 -63,-36 -6,8 -17,13 -25,10 -7,-3 -16,-1 -20,5 -10,16 -25,13 -25,-5 0,-10 -6,-14 -15,-10 -11,4 -15,-2 -15,-24 0,-37 -12,-38 -40,-3 -26,34 -38,22 -42,-42 -3,-44 -5,-49 -23,-46 -11,2 -31,5 -45,5 -23,1 -25,-2 -21,-34 2,-19 5,-51 5,-70 1,-33 -1,-35 -36,-38 -40,-3 -45,-11 -28,-42 15,-28 -12,-51 -52,-43 -28,6 -30,5 -19,-15 19,-35 14,-52 -15,-52 -26,0 -26,-1 -10,-24 19,-31 8,-39 -31,-24 -50,19 -65,6 -57,-47 5,-37 3,-49 -10,-58 -15,-11 -15,-15 3,-48 13,-25 16,-40 9,-47 -6,-6 -5,-16 3,-30 12,-18 10,-24 -10,-46 -22,-24 -22,-24 -3,-30 39,-13 45,-31 18,-63 l -25,-30 25,-24 c 21,-20 24,-29 19,-60 -6,-35 -5,-37 26,-43 61,-12 83,-51 58,-98 -9,-17 -8,-24 3,-32 11,-8 12,-15 4,-28 -15,-25 -2,-32 35,-19 45,15 87,15 71,-1 -20,-20 -15,-76 7,-83 10,-3 21,-15 24,-25 3,-11 13,-20 22,-20 9,0 14,-4 11,-9 -3,-4 4,-25 14,-47 11,-21 20,-49 20,-61 0,-20 5,-23 44,-23 29,0 52,-7 70,-21 14,-11 26,-18 26,-14 0,15 -43,85 -79,128 -43,52 -76,139 -87,231 -8,65 14,154 61,255 46,97 47,147 3,191 -25,25 -27,31 -13,29 28,-6 65,-66 65,-107 0,-20 -17,-73 -40,-121 -65,-142 -74,-232 -36,-357 13,-41 23,-55 49,-67 31,-16 32,-15 38,6 3,12 4,42 2,67 -4,37 -1,48 17,65 21,19 22,19 85,-4 36,-12 69,-20 75,-16 5,3 10,33 10,66 0,54 3,64 29,90 16,16 39,29 50,29 18,0 20,4 14,28 -10,36 -7,88 8,123 19,48 28,32 12,-22 -12,-40 -13,-60 -4,-88 14,-48 102,-155 138,-169 15,-6 77,-16 138,-22 60,-6 152,-20 205,-31 99,-21 151,-19 131,4 -7,9 -6,21 4,40 13,25 12,29 -10,56 l -24,28 25,12 c 25,11 26,17 7,68 -3,7 2,16 10,19 12,4 14,11 6,31 -14,37 -11,50 13,73 l 23,21 -24,18 c -21,16 -22,19 -6,25 14,5 15,9 5,21 -9,11 -10,18 -1,29 9,10 8,15 -4,20 -19,7 -20,35 0,42 25,10 17,24 -12,24 -16,0 -35,5 -43,10 -12,8 -9,10 11,10 37,0 42,23 13,51 -18,17 -23,30 -19,46 4,18 1,23 -15,23 -24,0 -26,13 -4,31 13,11 11,14 -18,24 -29,9 -33,15 -32,43 2,26 -2,32 -18,32 -10,0 -16,5 -13,10 3,6 -3,10 -14,10 -17,0 -21,6 -21,30 0,58 -24,95 -76,119 -27,13 -58,31 -69,41 -11,10 -32,23 -47,29 -23,8 -28,17 -29,43 0,24 -8,39 -30,56 -27,22 -31,22 -57,9 -25,-12 -30,-12 -39,1 -7,12 -15,13 -40,4 -34,-11 -43,-3 -43,40 0,20 -1,20 -18,5 -24,-22 -39,-21 -52,3 -14,25 -30,26 -37,1 z"
       id="path534"
       inkscape:connector-curvature="0" />
    <path
       d="m 3263,2010 c -32,-13 -53,-61 -53,-120 0,-60 -13,-69 -74,-51 -23,7 -54,14 -71,14 l -30,2 -5,-75 -5,-75 -33,1 -32,2 28,-32 c 72,-82 70,-72 76,-391 5,-288 16,-401 51,-519 8,-27 15,-77 15,-110 0,-34 6,-79 12,-101 l 13,-40 3,37 c 3,41 12,47 32,23 8,-9 10,-28 6,-50 -8,-40 12,-117 28,-112 32,11 21,166 -15,239 -13,26 -25,94 -39,223 -22,205 -24,304 -10,410 21,146 23,203 10,235 -7,17 -10,33 -7,37 3,3 24,-33 47,-80 43,-91 140,-222 171,-232 11,-4 31,2 47,13 15,11 46,29 70,41 34,17 42,27 42,49 0,55 -67,135 -163,196 -56,35 -60,89 -9,144 27,29 32,30 145,37 147,9 431,-10 556,-37 52,-11 111,-18 132,-15 21,3 76,28 123,56 90,55 111,73 74,63 -23,-5 -23,-5 -4,16 26,30 8,28 -23,-2 -25,-23 -121,-71 -121,-60 0,3 7,19 16,35 8,17 13,33 10,36 -9,9 -33,-16 -61,-63 -14,-24 -32,-44 -39,-44 -7,0 -33,11 -57,24 -24,13 -75,32 -114,41 -38,9 -78,21 -88,26 -22,13 -251,57 -331,64 -152,14 -144,11 -218,86 -72,73 -71,73 -105,59 z"
       id="path536"
       inkscape:connector-curvature="0" />
    <path
       d="m 3427,1703 c -30,-3 -42,-11 -57,-36 -35,-57 -28,-80 44,-131 36,-25 78,-62 95,-83 23,-27 29,-31 24,-14 -5,20 -3,21 21,11 41,-15 46,-13 46,25 v 35 l 40,-6 40,-7 v 57 56 h 60 60 v 30 c 0,24 6,33 28,42 l 27,11 -30,7 c -31,8 -331,10 -398,3 z"
       id="path538"
       inkscape:connector-curvature="0" />
    <path
       d="m 3851,1676 -22,-23 53,-25 c 63,-30 175,-122 184,-152 20,-63 113,-128 153,-107 45,24 46,38 7,96 -67,102 -105,135 -210,187 -55,26 -109,48 -121,48 -12,0 -31,-11 -44,-24 z"
       id="path540"
       inkscape:connector-curvature="0" />
    <path
       d="m 3240,1373 c 0,-25 24,-59 69,-98 l 46,-40 -41,50 c -22,28 -48,61 -57,75 -9,13 -17,19 -17,13 z"
       id="path542"
       inkscape:connector-curvature="0" />
    <path
       d="m 3490,1276 c -31,-17 -66,-38 -78,-47 -22,-16 -22,-17 -3,-22 11,-3 25,1 32,9 6,8 15,11 20,8 5,-3 9,-1 9,4 0,5 19,13 43,17 23,4 36,9 29,12 -10,4 -10,8 -1,19 24,30 1,30 -51,0 z"
       id="path544"
       inkscape:connector-curvature="0" />
  </g>
  <g
     id="layer107"
     transform="translate(-422.42841,-393.85472)"
     style="fill:#ffffff;stroke:none">
    <path
       d="m 3532,4133 c -5,-10 -26,-67 -47,-127 -38,-112 -40,-134 -16,-221 13,-50 14,-156 1,-190 -16,-41 -30,-144 -39,-287 -9,-133 -10,-137 -68,-277 -5,-11 -1,-13 17,-8 13,3 32,2 42,-4 12,-7 18,-6 18,1 0,7 6,10 13,7 6,-2 20,0 30,5 13,7 19,3 27,-17 5,-14 14,-25 19,-25 5,0 24,46 42,103 45,136 46,236 5,465 l -30,164 37,111 c 28,87 37,133 41,209 5,105 3,108 -54,108 -18,0 -33,-7 -38,-17 z"
       id="path547"
       inkscape:connector-curvature="0" />
    <path
       d="m 3239,1984 c -18,-19 -23,-35 -22,-67 5,-95 -13,-108 -99,-76 -80,30 -87,25 -90,-63 l -3,-73 h -31 -32 l 35,-39 c 70,-77 73,-91 73,-381 0,-264 12,-397 45,-508 8,-28 15,-80 16,-116 0,-36 6,-84 14,-106 l 13,-40 1,38 c 1,31 4,38 19,35 14,-3 17,-15 18,-68 0,-36 6,-76 14,-89 11,-22 13,-23 23,-6 16,30 2,166 -23,215 -42,82 -74,518 -50,670 22,132 23,185 6,218 -9,18 -12,32 -7,32 6,0 33,-44 60,-97 57,-110 157,-232 182,-219 48,24 124,74 132,88 24,38 -74,167 -161,212 -54,28 -55,90 -4,147 l 28,32 160,4 c 176,5 418,-14 550,-43 77,-17 84,-17 125,-1 51,20 196,112 160,102 -20,-6 -23,-5 -17,11 6,16 4,16 -16,-3 -22,-20 -90,-53 -109,-53 -5,0 0,18 11,40 29,58 -1,42 -40,-21 -33,-54 -44,-58 -92,-30 -18,11 -64,27 -103,37 -38,9 -82,23 -96,30 -32,16 -267,60 -369,69 -111,10 -134,20 -193,86 -61,67 -89,74 -128,33 z"
       id="path549"
       inkscape:connector-curvature="0" />
    <path
       d="m 3853,1675 -23,-22 58,-26 c 75,-36 165,-116 193,-173 18,-38 31,-50 73,-69 46,-20 53,-21 73,-8 13,9 23,23 23,32 0,24 -95,157 -133,185 -40,30 -172,91 -212,98 -22,4 -36,-1 -52,-17 z"
       id="path551"
       inkscape:connector-curvature="0" />
  </g>
  <g
     aria-label="Belas Artes
Conservarório de Dança"
     style="font-style:normal;font-weight:normal;font-size:400px;line-height:1.25;font-family:sans-serif;letter-spacing:0px;word-spacing:0px;fill:#ffffff;fill-opacity:1;stroke:none;stroke-width:10"
     id="text4521"
     transform="translate(-512.5979,-406.73608)">
    <path
       d="m 2361.0354,4753.9829 q 49.0625,0 83.75,-34.6875 34.6875,-35 34.6875,-84.375 0,-49.375 -34.6875,-84.375 -34.6875,-35 -83.75,-35 h -102.1875 v 238.4375 z m -102.1875,-392.1875 v 128.75 h 112.5 q 27.1875,-2.8125 40.625,-16.25 19.0625,-19.0625 19.0625,-46.5625 0,-27.1875 -19.375,-46.5625 -19.0625,-19.375 -46.25,-19.375 z m 159.6875,140 q 24.375,10.3125 44.6875,30.9375 42.1875,42.1875 42.1875,102.1875 0,59.6875 -42.1875,101.875 -35.3125,35.3125 -85.9375,42.1875 h -143.4375 v -441.875 h 131.875 q 37.8125,0 64.0625,26.5625 26.5625,26.5625 26.5625,64.0625 0,37.5 -26.5625,64.0625 -5.625,5.9375 -11.25,10 z"
       style="font-style:normal;font-variant:normal;font-weight:normal;font-stretch:normal;font-size:640px;line-height:0.75;font-family:'Champagne &amp; Limousines';-inkscape-font-specification:'Champagne &amp; Limousines';text-align:center;text-anchor:middle;fill:#ffffff;stroke-width:10"
       id="path4594"
       inkscape:connector-curvature="0" />
    <path
       d="m 2569.4729,4595.8579 h 238.125 q -8.75,-28.4375 -29.6875,-49.375 -36.875,-36.875 -88.75,-36.875 -51.875,0 -88.75,36.875 -21.875,22.1875 -30.9375,49.375 z m -4.6875,25.3125 q -0.9375,6.5625 -0.9375,14.0625 0,51.875 36.5625,88.4375 36.875,36.5625 88.75,36.5625 51.875,0 88.75,-36.875 6.25,-6.25 11.875,-13.125 l 26.5625,9.375 q -4.6875,7.8125 -19.6875,22.5 -44.375,44.6875 -107.5,44.6875 -62.5,0 -107.1875,-44.375 -44.375,-44.6875 -44.375,-107.1875 0,-63.125 44.375,-107.5 44.6875,-44.375 107.1875,-44.375 63.125,0 107.5,44.375 39.0625,39.375 39.0625,93.4375 z"
       style="font-style:normal;font-variant:normal;font-weight:normal;font-stretch:normal;font-size:640px;line-height:0.75;font-family:'Champagne &amp; Limousines';-inkscape-font-specification:'Champagne &amp; Limousines';text-align:center;text-anchor:middle;fill:#ffffff;stroke-width:10"
       id="path4596"
       inkscape:connector-curvature="0" />
    <path
       d="m 2906.9729,4337.1079 v 441.875 h -25 v -441.875 z"
       style="font-style:normal;font-variant:normal;font-weight:normal;font-stretch:normal;font-size:640px;line-height:0.75;font-family:'Champagne &amp; Limousines';-inkscape-font-specification:'Champagne &amp; Limousines';text-align:center;text-anchor:middle;fill:#ffffff;stroke-width:10"
       id="path4598"
       inkscape:connector-curvature="0" />
    <path
       d="m 3264.1604,4778.9829 h -25 v -55.3125 q -7.1875,9.6875 -15.625,18.4375 -44.375,44.6875 -107.5,44.6875 -62.5,0 -107.1875,-44.375 -44.375,-44.6875 -44.375,-107.1875 0,-63.125 44.375,-107.5 44.6875,-44.375 107.1875,-44.375 63.125,0 107.5,44.375 8.4375,8.75 15.625,18.4375 v -38.4375 h 25 z m -25,-119.375 v -49.0625 q -6.875,-36.5625 -34.375,-64.0625 -36.875,-36.875 -88.75,-36.875 -51.875,0 -88.75,36.875 -36.5625,36.875 -36.5625,88.75 0,51.875 36.5625,88.4375 36.875,36.5625 88.75,36.5625 51.875,0 88.75,-36.875 27.5,-27.5 34.375,-63.75 z"
       style="font-style:normal;font-variant:normal;font-weight:normal;font-stretch:normal;font-size:640px;line-height:0.75;font-family:'Champagne &amp; Limousines';-inkscape-font-specification:'Champagne &amp; Limousines';text-align:center;text-anchor:middle;fill:#ffffff;stroke-width:10"
       id="path4600"
       inkscape:connector-curvature="0" />
    <path
       d="m 3393.8479,4633.3579 q -31.5625,-17.1875 -43.75,-29.375 -19.0625,-19.0625 -19.0625,-45.9375 0,-26.875 19.0625,-45.9375 19.0625,-19.375 45.9375,-19.375 26.875,0 44.6875,17.8125 17.1875,17.1875 17.1875,39.375 v 1.25 l -21.5625,8.75 q -2.8125,-20.9375 -13.125,-31.5625 -10.3125,-10.625 -27.1875,-10.625 -16.5625,0 -28.4375,11.875 -11.875,11.875 -11.875,28.4375 0,16.5625 11.875,28.4375 6.875,7.1875 29.0625,21.25 35.3125,19.0625 50.3125,34.0625 23.4375,23.75 23.4375,56.5625 0,33.75 -23.4375,57.5 -23.4375,23.4375 -56.875,23.4375 -33.4375,0 -56.875,-23.4375 -23.4375,-23.75 -23.4375,-51.875 l 24.6875,-6.25 q 0,24.0625 16.25,40.625 16.5625,16.25 39.375,16.25 22.8125,0 39.375,-16.25 16.5625,-16.5625 16.5625,-40 0,-22.8125 -16.5625,-39.0625 -8.75,-8.75 -35.625,-25.9375 z"
       style="font-style:normal;font-variant:normal;font-weight:normal;font-stretch:normal;font-size:640px;line-height:0.75;font-family:'Champagne &amp; Limousines';-inkscape-font-specification:'Champagne &amp; Limousines';text-align:center;text-anchor:middle;fill:#ffffff;stroke-width:10"
       id="path4602"
       inkscape:connector-curvature="0" />
    <path
       d="m 3894.4729,4559.9204 -67.1875,-185.3125 -67.5,185.3125 z m -54.375,-222.8125 160.3125,441.875 h -26.25 l -70.625,-194.375 h -152.8125 l -71.875,194.375 h -26.5625 l 162.1875,-441.875 z"
       style="font-style:normal;font-variant:normal;font-weight:normal;font-stretch:normal;font-size:640px;line-height:0.75;font-family:'Champagne &amp; Limousines';-inkscape-font-specification:'Champagne &amp; Limousines';text-align:center;text-anchor:middle;fill:#ffffff;stroke-width:10"
       id="path4604"
       inkscape:connector-curvature="0" />
    <path
       d="m 4128.2229,4529.6079 q -26.5625,4.0625 -52.1875,33.75 -25.625,29.6875 -25.625,60 v 155.625 h -25 v -271.25 h 25 v 58.75 q 15.625,-40.9375 64.0625,-60.9375 z"
       style="font-style:normal;font-variant:normal;font-weight:normal;font-stretch:normal;font-size:640px;line-height:0.75;font-family:'Champagne &amp; Limousines';-inkscape-font-specification:'Champagne &amp; Limousines';text-align:center;text-anchor:middle;fill:#ffffff;stroke-width:10"
       id="path4606"
       inkscape:connector-curvature="0" />
    <path
       d="m 4194.1604,4507.7329 v -115.3125 h 24.6875 v 115.3125 h 55.3125 v 25 h -55.3125 v 246.25 h -24.6875 v -246.25 h -55.3125 v -25 z"
       style="font-style:normal;font-variant:normal;font-weight:normal;font-stretch:normal;font-size:640px;line-height:0.75;font-family:'Champagne &amp; Limousines';-inkscape-font-specification:'Champagne &amp; Limousines';text-align:center;text-anchor:middle;fill:#ffffff;stroke-width:10"
       id="path4608"
       inkscape:connector-curvature="0" />
    <path
       d="m 4331.9729,4595.8579 h 238.125 q -8.75,-28.4375 -29.6875,-49.375 -36.875,-36.875 -88.75,-36.875 -51.875,0 -88.75,36.875 -21.875,22.1875 -30.9375,49.375 z m -4.6875,25.3125 q -0.9375,6.5625 -0.9375,14.0625 0,51.875 36.5625,88.4375 36.875,36.5625 88.75,36.5625 51.875,0 88.75,-36.875 6.25,-6.25 11.875,-13.125 l 26.5625,9.375 q -4.6875,7.8125 -19.6875,22.5 -44.375,44.6875 -107.5,44.6875 -62.5,0 -107.1875,-44.375 -44.375,-44.6875 -44.375,-107.1875 0,-63.125 44.375,-107.5 44.6875,-44.375 107.1875,-44.375 63.125,0 107.5,44.375 39.0625,39.375 39.0625,93.4375 z"
       style="font-style:normal;font-variant:normal;font-weight:normal;font-stretch:normal;font-size:640px;line-height:0.75;font-family:'Champagne &amp; Limousines';-inkscape-font-specification:'Champagne &amp; Limousines';text-align:center;text-anchor:middle;fill:#ffffff;stroke-width:10"
       id="path4610"
       inkscape:connector-curvature="0" />
    <path
       d="m 4711.3479,4633.3579 q -31.5625,-17.1875 -43.75,-29.375 -19.0625,-19.0625 -19.0625,-45.9375 0,-26.875 19.0625,-45.9375 19.0625,-19.375 45.9375,-19.375 26.875,0 44.6875,17.8125 17.1875,17.1875 17.1875,39.375 v 1.25 l -21.5625,8.75 q -2.8125,-20.9375 -13.125,-31.5625 -10.3125,-10.625 -27.1875,-10.625 -16.5625,0 -28.4375,11.875 -11.875,11.875 -11.875,28.4375 0,16.5625 11.875,28.4375 6.875,7.1875 29.0625,21.25 35.3125,19.0625 50.3125,34.0625 23.4375,23.75 23.4375,56.5625 0,33.75 -23.4375,57.5 -23.4375,23.4375 -56.875,23.4375 -33.4375,0 -56.875,-23.4375 -23.4375,-23.75 -23.4375,-51.875 l 24.6875,-6.25 q 0,24.0625 16.25,40.625 16.5625,16.25 39.375,16.25 22.8125,0 39.375,-16.25 16.5625,-16.5625 16.5625,-40 0,-22.8125 -16.5625,-39.0625 -8.75,-8.75 -35.625,-25.9375 z"
       style="font-style:normal;font-variant:normal;font-weight:normal;font-stretch:normal;font-size:640px;line-height:0.75;font-family:'Champagne &amp; Limousines';-inkscape-font-specification:'Champagne &amp; Limousines';text-align:center;text-anchor:middle;fill:#ffffff;stroke-width:10"
       id="path4612"
       inkscape:connector-curvature="0" />
    <path
       d="m 871.9729,5282.34 19.0625,16.875 q -64.6875,58.75 -152.1875,58.75 -94.0625,0 -160.3125,-65.9375 -65.9375,-66.25 -65.9375,-160.3125 0,-93.4375 65.9375,-159.6875 66.25,-66.5625 160.3125,-66.5625 87.5,0 152.1875,59.0625 l -19.0625,16.875 q -56.875,-50.3125 -133.125,-50.3125 -83.125,0 -142.1875,58.75 -58.75,58.75 -58.75,141.875 0,83.4375 58.75,142.1875 59.0625,58.75 142.1875,58.75 76.25,0 133.125,-50.3125 z"
       style="font-style:normal;font-variant:normal;font-weight:normal;font-stretch:normal;font-size:640px;line-height:0.75;font-family:'Champagne &amp; Limousines';-inkscape-font-specification:'Champagne &amp; Limousines';text-align:center;text-anchor:middle;fill:#ffffff;stroke-width:10"
       id="path4614"
       inkscape:connector-curvature="0" />
    <path
       d="m 1084.7854,5057.0275 q 63.125,0 107.1875,44.375 44.375,44.375 44.375,107.5 0,62.5 -44.375,107.1875 -44.0625,44.375 -107.1875,44.375 -62.5,0 -107.1875,-44.375 -44.375,-44.6875 -44.375,-107.1875 0,-63.125 44.375,-107.5 44.6875,-44.375 107.1875,-44.375 z m 0,26.25 q -51.875,0 -88.75,36.875 -36.5625,36.875 -36.5625,88.75 0,51.875 36.5625,88.4375 36.875,36.5625 88.75,36.5625 51.875,0 88.4375,-36.5625 36.875,-36.5625 36.875,-88.4375 0,-51.875 -36.875,-88.75 -36.5625,-36.875 -88.4375,-36.875 z"
       style="font-style:normal;font-variant:normal;font-weight:normal;font-stretch:normal;font-size:640px;line-height:0.75;font-family:'Champagne &amp; Limousines';-inkscape-font-specification:'Champagne &amp; Limousines';text-align:center;text-anchor:middle;fill:#ffffff;stroke-width:10"
       id="path4616"
       inkscape:connector-curvature="0" />
    <path
       d="m 1315.4104,5142.0275 v 210.625 h -25 v -271.25 h 25 v 17.5 q 33.75,-33.75 78.75,-33.75 48.125,0 78.125,30.3125 30.3125,30 30.9375,75.625 v 181.5625 h -24.6875 V 5173.59 q 0,-34.6875 -25,-59.0625 -25,-24.375 -59.375,-24.375 -34.0625,0 -59.0625,24.0625 -13.4375,13.4375 -19.6875,27.8125 z"
       style="font-style:normal;font-variant:normal;font-weight:normal;font-stretch:normal;font-size:640px;line-height:0.75;font-family:'Champagne &amp; Limousines';-inkscape-font-specification:'Champagne &amp; Limousines';text-align:center;text-anchor:middle;fill:#ffffff;stroke-width:10"
       id="path4618"
       inkscape:connector-curvature="0" />
    <path
       d="m 1635.7229,5207.0275 q -31.5625,-17.1875 -43.75,-29.375 -19.0625,-19.0625 -19.0625,-45.9375 0,-26.875 19.0625,-45.9375 19.0625,-19.375 45.9375,-19.375 26.875,0 44.6875,17.8125 17.1875,17.1875 17.1875,39.375 v 1.25 l -21.5625,8.75 q -2.8125,-20.9375 -13.125,-31.5625 -10.3125,-10.625 -27.1875,-10.625 -16.5625,0 -28.4375,11.875 -11.875,11.875 -11.875,28.4375 0,16.5625 11.875,28.4375 6.875,7.1875 29.0625,21.25 35.3125,19.0625 50.3125,34.0625 23.4375,23.75 23.4375,56.5625 0,33.75 -23.4375,57.5 -23.4375,23.4375 -56.875,23.4375 -33.4375,0 -56.875,-23.4375 -23.4375,-23.75 -23.4375,-51.875 l 24.6875,-6.25 q 0,24.0625 16.25,40.625 16.5625,16.25 39.375,16.25 22.8125,0 39.375,-16.25 16.5625,-16.5625 16.5625,-40 0,-22.8125 -16.5625,-39.0625 -8.75,-8.75 -35.625,-25.9375 z"
       style="font-style:normal;font-variant:normal;font-weight:normal;font-stretch:normal;font-size:640px;line-height:0.75;font-family:'Champagne &amp; Limousines';-inkscape-font-specification:'Champagne &amp; Limousines';text-align:center;text-anchor:middle;fill:#ffffff;stroke-width:10"
       id="path4620"
       inkscape:connector-curvature="0" />
    <path
       d="m 1783.8479,5169.5275 h 238.125 q -8.75,-28.4375 -29.6875,-49.375 -36.875,-36.875 -88.75,-36.875 -51.875,0 -88.75,36.875 -21.875,22.1875 -30.9375,49.375 z m -4.6875,25.3125 q -0.9375,6.5625 -0.9375,14.0625 0,51.875 36.5625,88.4375 36.875,36.5625 88.75,36.5625 51.875,0 88.75,-36.875 6.25,-6.25 11.875,-13.125 l 26.5625,9.375 q -4.6875,7.8125 -19.6875,22.5 -44.375,44.6875 -107.5,44.6875 -62.5,0 -107.1875,-44.375 -44.375,-44.6875 -44.375,-107.1875 0,-63.125 44.375,-107.5 44.6875,-44.375 107.1875,-44.375 63.125,0 107.5,44.375 39.0625,39.375 39.0625,93.4375 z"
       style="font-style:normal;font-variant:normal;font-weight:normal;font-stretch:normal;font-size:640px;line-height:0.75;font-family:'Champagne &amp; Limousines';-inkscape-font-specification:'Champagne &amp; Limousines';text-align:center;text-anchor:middle;fill:#ffffff;stroke-width:10"
       id="path4622"
       inkscape:connector-curvature="0" />
    <path
       d="m 2188.8479,5103.2775 q -26.5625,4.0625 -52.1875,33.75 -25.625,29.6875 -25.625,60 v 155.625 h -25 v -271.25 h 25 v 58.75 q 15.625,-40.9375 64.0625,-60.9375 z"
       style="font-style:normal;font-variant:normal;font-weight:normal;font-stretch:normal;font-size:640px;line-height:0.75;font-family:'Champagne &amp; Limousines';-inkscape-font-specification:'Champagne &amp; Limousines';text-align:center;text-anchor:middle;fill:#ffffff;stroke-width:10"
       id="path4624"
       inkscape:connector-curvature="0" />
    <path
       d="m 2466.8167,5081.4025 -121.25,271.25 h -13.125 l -120,-271.25 h 29.0625 l 97.5,225.9375 98.75,-225.9375 z"
       style="font-style:normal;font-variant:normal;font-weight:normal;font-stretch:normal;font-size:640px;line-height:0.75;font-family:'Champagne &amp; Limousines';-inkscape-font-specification:'Champagne &amp; Limousines';text-align:center;text-anchor:middle;fill:#ffffff;stroke-width:10"
       id="path4626"
       inkscape:connector-curvature="0" />
    <path
       d="m 2789.7854,5352.6525 h -25 V 5297.34 q -7.1875,9.6875 -15.625,18.4375 -44.375,44.6875 -107.5,44.6875 -62.5,0 -107.1875,-44.375 -44.375,-44.6875 -44.375,-107.1875 0,-63.125 44.375,-107.5 44.6875,-44.375 107.1875,-44.375 63.125,0 107.5,44.375 8.4375,8.75 15.625,18.4375 v -38.4375 h 25 z m -25,-119.375 v -49.0625 q -6.875,-36.5625 -34.375,-64.0625 -36.875,-36.875 -88.75,-36.875 -51.875,0 -88.75,36.875 -36.5625,36.875 -36.5625,88.75 0,51.875 36.5625,88.4375 36.875,36.5625 88.75,36.5625 51.875,0 88.75,-36.875 27.5,-27.5 34.375,-63.75 z"
       style="font-style:normal;font-variant:normal;font-weight:normal;font-stretch:normal;font-size:640px;line-height:0.75;font-family:'Champagne &amp; Limousines';-inkscape-font-specification:'Champagne &amp; Limousines';text-align:center;text-anchor:middle;fill:#ffffff;stroke-width:10"
       id="path4628"
       inkscape:connector-curvature="0" />
    <path
       d="m 2945.0979,5103.2775 q -26.5625,4.0625 -52.1875,33.75 -25.625,29.6875 -25.625,60 v 155.625 h -25 v -271.25 h 25 v 58.75 q 15.625,-40.9375 64.0625,-60.9375 z"
       style="font-style:normal;font-variant:normal;font-weight:normal;font-stretch:normal;font-size:640px;line-height:0.75;font-family:'Champagne &amp; Limousines';-inkscape-font-specification:'Champagne &amp; Limousines';text-align:center;text-anchor:middle;fill:#ffffff;stroke-width:10"
       id="path4630"
       inkscape:connector-curvature="0" />
    <path
       d="m 3119.7854,5057.0275 q 63.125,0 107.1875,44.375 44.375,44.375 44.375,107.5 0,62.5 -44.375,107.1875 -44.0625,44.375 -107.1875,44.375 -62.5,0 -107.1875,-44.375 -44.375,-44.6875 -44.375,-107.1875 0,-63.125 44.375,-107.5 44.6875,-44.375 107.1875,-44.375 z m 0,26.25 q -51.875,0 -88.75,36.875 -36.5625,36.875 -36.5625,88.75 0,51.875 36.5625,88.4375 36.875,36.5625 88.75,36.5625 51.875,0 88.4375,-36.5625 36.875,-36.5625 36.875,-88.4375 0,-51.875 -36.875,-88.75 -36.5625,-36.875 -88.4375,-36.875 z m 60.625,-110.9375 -67.8125,51.5625 h -23.125 l 45,-51.5625 z"
       style="font-style:normal;font-variant:normal;font-weight:normal;font-stretch:normal;font-size:640px;line-height:0.75;font-family:'Champagne &amp; Limousines';-inkscape-font-specification:'Champagne &amp; Limousines';text-align:center;text-anchor:middle;fill:#ffffff;stroke-width:10"
       id="path4632"
       inkscape:connector-curvature="0" />
    <path
       d="m 3421.3479,5103.2775 q -26.5625,4.0625 -52.1875,33.75 -25.625,29.6875 -25.625,60 v 155.625 h -25 v -271.25 h 25 v 58.75 q 15.625,-40.9375 64.0625,-60.9375 z"
       style="font-style:normal;font-variant:normal;font-weight:normal;font-stretch:normal;font-size:640px;line-height:0.75;font-family:'Champagne &amp; Limousines';-inkscape-font-specification:'Champagne &amp; Limousines';text-align:center;text-anchor:middle;fill:#ffffff;stroke-width:10"
       id="path4634"
       inkscape:connector-curvature="0" />
    <path
       d="m 3483.8479,5081.4025 v 271.25 h -24.6875 v -271.25 z m -12.1875,-95.9375 q 10,0 17.1875,7.1875 7.5,7.1875 7.5,17.1875 0,10.625 -7.5,17.8125 -7.1875,7.1875 -17.1875,7.1875 -10.3125,0 -17.8125,-7.1875 -7.1875,-7.1875 -7.1875,-17.8125 0,-10 7.1875,-17.1875 7.5,-7.1875 17.8125,-7.1875 z"
       style="font-style:normal;font-variant:normal;font-weight:normal;font-stretch:normal;font-size:640px;line-height:0.75;font-family:'Champagne &amp; Limousines';-inkscape-font-specification:'Champagne &amp; Limousines';text-align:center;text-anchor:middle;fill:#ffffff;stroke-width:10"
       id="path4636"
       inkscape:connector-curvature="0" />
    <path
       d="m 3694.7854,5057.0275 q 63.125,0 107.1875,44.375 44.375,44.375 44.375,107.5 0,62.5 -44.375,107.1875 -44.0625,44.375 -107.1875,44.375 -62.5,0 -107.1875,-44.375 -44.375,-44.6875 -44.375,-107.1875 0,-63.125 44.375,-107.5 44.6875,-44.375 107.1875,-44.375 z m 0,26.25 q -51.875,0 -88.75,36.875 -36.5625,36.875 -36.5625,88.75 0,51.875 36.5625,88.4375 36.875,36.5625 88.75,36.5625 51.875,0 88.4375,-36.5625 36.875,-36.5625 36.875,-88.4375 0,-51.875 -36.875,-88.75 -36.5625,-36.875 -88.4375,-36.875 z"
       style="font-style:normal;font-variant:normal;font-weight:normal;font-stretch:normal;font-size:640px;line-height:0.75;font-family:'Champagne &amp; Limousines';-inkscape-font-specification:'Champagne &amp; Limousines';text-align:center;text-anchor:middle;fill:#ffffff;stroke-width:10"
       id="path4638"
       inkscape:connector-curvature="0" />
    <path
       d="m 4351.0354,5352.6525 h -25 V 5297.34 q -7.1875,9.6875 -15.625,18.4375 -44.375,44.6875 -107.5,44.6875 -62.5,0 -107.1875,-44.375 -44.375,-44.6875 -44.375,-107.1875 0,-63.125 44.375,-107.5 44.6875,-44.375 107.1875,-44.375 63.125,0 107.5,44.375 8.4375,8.75 15.625,18.4375 v -209.0625 h 25 z m -25,-119.375 v -49.0625 q -6.875,-36.5625 -34.375,-64.0625 -36.875,-36.875 -88.75,-36.875 -51.875,0 -88.75,36.875 -36.5625,36.875 -36.5625,88.75 0,51.875 36.5625,88.4375 36.875,36.5625 88.75,36.5625 51.875,0 88.75,-36.875 27.5,-27.5 34.375,-63.75 z"
       style="font-style:normal;font-variant:normal;font-weight:normal;font-stretch:normal;font-size:640px;line-height:0.75;font-family:'Champagne &amp; Limousines';-inkscape-font-specification:'Champagne &amp; Limousines';text-align:center;text-anchor:middle;fill:#ffffff;stroke-width:10"
       id="path4640"
       inkscape:connector-curvature="0" />
    <path
       d="m 4427.5979,5169.5275 h 238.125 q -8.75,-28.4375 -29.6875,-49.375 -36.875,-36.875 -88.75,-36.875 -51.875,0 -88.75,36.875 -21.875,22.1875 -30.9375,49.375 z m -4.6875,25.3125 q -0.9375,6.5625 -0.9375,14.0625 0,51.875 36.5625,88.4375 36.875,36.5625 88.75,36.5625 51.875,0 88.75,-36.875 6.25,-6.25 11.875,-13.125 l 26.5625,9.375 q -4.6875,7.8125 -19.6875,22.5 -44.375,44.6875 -107.5,44.6875 -62.5,0 -107.1875,-44.375 -44.375,-44.6875 -44.375,-107.1875 0,-63.125 44.375,-107.5 44.6875,-44.375 107.1875,-44.375 63.125,0 107.5,44.375 39.0625,39.375 39.0625,93.4375 z"
       style="font-style:normal;font-variant:normal;font-weight:normal;font-stretch:normal;font-size:640px;line-height:0.75;font-family:'Champagne &amp; Limousines';-inkscape-font-specification:'Champagne &amp; Limousines';text-align:center;text-anchor:middle;fill:#ffffff;stroke-width:10"
       id="path4642"
       inkscape:connector-curvature="0" />
    <path
       d="m 4981.3479,4910.7775 q 109.0625,0.625 169.0625,60.9375 66.25,66.5625 66.25,160 0,94.0625 -66.25,160.3125 -60,60 -169.0625,60.625 h -81.875 v -441.875 z m -56.875,25.9375 v 390.3125 h 56.5625 q 95.3125,0 150.3125,-53.125 58.75,-58.75 58.75,-142.1875 0,-83.125 -58.75,-142.1875 -55,-52.8125 -150.3125,-52.8125 z"
       style="font-style:normal;font-variant:normal;font-weight:normal;font-stretch:normal;font-size:640px;line-height:0.75;font-family:'Champagne &amp; Limousines';-inkscape-font-specification:'Champagne &amp; Limousines';text-align:center;text-anchor:middle;fill:#ffffff;stroke-width:10"
       id="path4644"
       inkscape:connector-curvature="0" />
    <path
       d="m 5558.5354,5352.6525 h -25 V 5297.34 q -7.1875,9.6875 -15.625,18.4375 -44.375,44.6875 -107.5,44.6875 -62.5,0 -107.1875,-44.375 -44.375,-44.6875 -44.375,-107.1875 0,-63.125 44.375,-107.5 44.6875,-44.375 107.1875,-44.375 63.125,0 107.5,44.375 8.4375,8.75 15.625,18.4375 v -38.4375 h 25 z m -25,-119.375 v -49.0625 q -6.875,-36.5625 -34.375,-64.0625 -36.875,-36.875 -88.75,-36.875 -51.875,0 -88.75,36.875 -36.5625,36.875 -36.5625,88.75 0,51.875 36.5625,88.4375 36.875,36.5625 88.75,36.5625 51.875,0 88.75,-36.875 27.5,-27.5 34.375,-63.75 z"
       style="font-style:normal;font-variant:normal;font-weight:normal;font-stretch:normal;font-size:640px;line-height:0.75;font-family:'Champagne &amp; Limousines';-inkscape-font-specification:'Champagne &amp; Limousines';text-align:center;text-anchor:middle;fill:#ffffff;stroke-width:10"
       id="path4646"
       inkscape:connector-curvature="0" />
    <path
       d="m 5642.9104,5142.0275 v 210.625 h -25 v -271.25 h 25 v 17.5 q 33.75,-33.75 78.75,-33.75 48.125,0 78.125,30.3125 30.3125,30 30.9375,75.625 v 181.5625 h -24.6875 V 5173.59 q 0,-34.6875 -25,-59.0625 -25,-24.375 -59.375,-24.375 -34.0625,0 -59.0625,24.0625 -13.4375,13.4375 -19.6875,27.8125 z"
       style="font-style:normal;font-variant:normal;font-weight:normal;font-stretch:normal;font-size:640px;line-height:0.75;font-family:'Champagne &amp; Limousines';-inkscape-font-specification:'Champagne &amp; Limousines';text-align:center;text-anchor:middle;fill:#ffffff;stroke-width:10"
       id="path4648"
       inkscape:connector-curvature="0" />
    <path
       d="m 6000.0979,5357.6525 q -43.75,-8.125 -77.1875,-41.875 -44.6875,-44.375 -44.6875,-107.1875 0,-62.8125 44.375,-107.1875 44.6875,-44.375 107.1875,-44.375 63.125,0 107.5,44.375 9.0625,9.0625 16.25,18.75 l -26.25,9.6875 q -4.0625,-5 -8.75,-10 -36.875,-36.5625 -88.75,-36.5625 -51.5625,0 -88.4375,36.875 -36.5625,36.5625 -36.5625,88.4375 0,51.875 36.5625,88.75 36.875,36.5625 88.4375,36.5625 51.875,0 88.75,-36.875 4.6875,-4.6875 8.75,-9.6875 l 26.25,9.6875 q -7.1875,9.6875 -16.25,18.75 -44.375,44.6875 -107.5,44.6875 -5.3125,0 -10.3125,-0.3125 l -3.4375,8.75 q 28.75,2.1875 36.875,19.0625 4.375,9.0625 4.375,17.5 0,7.1875 -3.4375,13.75 -7.1875,14.0625 -26.5625,17.1875 -7.1875,1.25 -13.4375,1.25 -10.625,0 -18.125,-3.4375 -12.1875,-5.3125 -20.9375,-12.1875 l 11.5625,-12.5 q 10.625,10.9375 22.8125,10.9375 3.125,0 6.5625,-0.9375 14.6875,-3.4375 14.6875,-17.8125 v -1.875 q -0.9375,-13.4375 -30.9375,-13.4375 -5.3125,0 -11.5625,0.3125 z"
       style="font-style:normal;font-variant:normal;font-weight:normal;font-stretch:normal;font-size:640px;line-height:0.75;font-family:'Champagne &amp; Limousines';-inkscape-font-specification:'Champagne &amp; Limousines';text-align:center;text-anchor:middle;fill:#ffffff;stroke-width:10"
       id="path4650"
       inkscape:connector-curvature="0" />
    <path
       d="m 6492.2854,5352.6525 h -25 V 5297.34 q -7.1875,9.6875 -15.625,18.4375 -44.375,44.6875 -107.5,44.6875 -62.5,0 -107.1875,-44.375 -44.375,-44.6875 -44.375,-107.1875 0,-63.125 44.375,-107.5 44.6875,-44.375 107.1875,-44.375 63.125,0 107.5,44.375 8.4375,8.75 15.625,18.4375 v -38.4375 h 25 z m -25,-119.375 v -49.0625 q -6.875,-36.5625 -34.375,-64.0625 -36.875,-36.875 -88.75,-36.875 -51.875,0 -88.75,36.875 -36.5625,36.875 -36.5625,88.75 0,51.875 36.5625,88.4375 36.875,36.5625 88.75,36.5625 51.875,0 88.75,-36.875 27.5,-27.5 34.375,-63.75 z"
       style="font-style:normal;font-variant:normal;font-weight:normal;font-stretch:normal;font-size:640px;line-height:0.75;font-family:'Champagne &amp; Limousines';-inkscape-font-specification:'Champagne &amp; Limousines';text-align:center;text-anchor:middle;fill:#ffffff;stroke-width:10"
       id="path4652"
       inkscape:connector-curvature="0" />
  </g>
  <flowRoot
     xml:space="preserve"
     id="flowRoot4586"
     style="font-style:normal;font-weight:normal;font-size:40px;line-height:1.25;font-family:sans-serif;letter-spacing:0px;word-spacing:0px;fill:#000000;fill-opacity:1;stroke:none"
     transform="matrix(10,0,0,10,-512.5979,-406.73608)"><flowRegion
       id="flowRegion4588"><rect
         id="rect4590"
         width="1051.1187"
         height="291.11865"
         x="-172.61017"
         y="383.86441" /></flowRegion><flowPara
       id="flowPara4592"></flowPara></flowRoot></svg>
