<?xml version="1.0" encoding="UTF-8" standalone="no"?>
<!-- Created with Inkscape (http://www.inkscape.org/) -->

<svg
   xmlns:dc="http://purl.org/dc/elements/1.1/"
   xmlns:cc="http://creativecommons.org/ns#"
   xmlns:rdf="http://www.w3.org/1999/02/22-rdf-syntax-ns#"
   xmlns:svg="http://www.w3.org/2000/svg"
   xmlns="http://www.w3.org/2000/svg"
   xmlns:sodipodi="http://sodipodi.sourceforge.net/DTD/sodipodi-0.dtd"
   xmlns:inkscape="http://www.inkscape.org/namespaces/inkscape"
   width="80.429726mm"
   height="34.11628mm"
   viewBox="0 0 80.429725 34.11628"
   version="1.1"
   id="svg140"
   inkscape:version="0.92.4 (5da689c313, 2019-01-14)"
   sodipodi:docname="logo_small_h_inv.svg">
  <defs
     id="defs134" />
  <sodipodi:namedview
     id="base"
     pagecolor="#ffffff"
     bordercolor="#666666"
     borderopacity="1.0"
     inkscape:pageopacity="0.0"
     inkscape:pageshadow="2"
     inkscape:zoom="0.98994949"
     inkscape:cx="449.26088"
     inkscape:cy="165.46518"
     inkscape:document-units="mm"
     inkscape:current-layer="layer1"
     showgrid="false"
     inkscape:window-width="1920"
     inkscape:window-height="1001"
     inkscape:window-x="-9"
     inkscape:window-y="-9"
     inkscape:window-maximized="1" />
  <metadata
     id="metadata137">
    <rdf:RDF>
      <cc:Work
         rdf:about="">
        <dc:format>image/svg+xml</dc:format>
        <dc:type
           rdf:resource="http://purl.org/dc/dcmitype/StillImage" />
        <dc:title></dc:title>
      </cc:Work>
    </rdf:RDF>
  </metadata>
  <g
     inkscape:label="Layer 1"
     inkscape:groupmode="layer"
     id="layer1"
     transform="translate(-15.491229,-14.99375)">
    <g
       aria-label="Belas Artes  Conservatório de Dança"
       style="font-style:normal;font-weight:normal;font-size:10.58333302px;line-height:0.89999998;font-family:sans-serif;letter-spacing:0px;word-spacing:0px;fill:#ffffff;fill-opacity:1;stroke:none;stroke-width:0.26458332"
       id="text4081"
       transform="translate(1.0583333)">
      <path
         d="m 41.57905,27.396206 q 0.81132,0 1.384929,-0.573608 0.573608,-0.578776 0.573608,-1.395264 0,-0.816488 -0.573608,-1.395264 -0.573609,-0.578776 -1.384929,-0.578776 h -1.689819 v 3.942912 z m -1.689819,-6.485392 v 2.129069 h 1.860352 q 0.449585,-0.04651 0.671793,-0.268718 0.315227,-0.315226 0.315227,-0.769978 0,-0.449585 -0.320394,-0.769979 -0.315227,-0.320394 -0.764812,-0.320394 z m 2.640666,2.315104 q 0.403076,0.170532 0.738973,0.511597 0.697632,0.697632 0.697632,1.689819 0,0.98702 -0.697632,1.684652 -0.583944,0.583943 -1.421102,0.697631 H 39.47582 V 20.50257 h 2.180745 q 0.625285,0 1.059367,0.43925 0.43925,0.43925 0.43925,1.059367 0,0.620117 -0.43925,1.059367 -0.09302,0.09818 -0.186035,0.165364 z"
         style="font-style:normal;font-variant:normal;font-weight:normal;font-stretch:normal;line-height:0.89999998;font-family:'Champagne &amp; Limousines';-inkscape-font-specification:'Champagne &amp; Limousines';fill:#ffffff;stroke-width:0.26458332"
         id="path4394"
         inkscape:connector-curvature="0" />
      <path
         d="m 45.025869,24.781379 h 3.937744 q -0.144694,-0.470256 -0.490926,-0.816488 -0.609782,-0.609782 -1.467611,-0.609782 -0.857829,0 -1.467611,0.609782 -0.361735,0.366903 -0.511596,0.816488 z m -0.07751,0.418579 q -0.0155,0.10852 -0.0155,0.232544 0,0.857828 0.604614,1.462443 0.609782,0.604614 1.467611,0.604614 0.857829,0 1.467611,-0.609782 0.103352,-0.103353 0.19637,-0.217041 l 0.43925,0.155029 q -0.07752,0.129191 -0.325562,0.372071 -0.733805,0.738973 -1.777669,0.738973 -1.033529,0 -1.772502,-0.733806 -0.733805,-0.738973 -0.733805,-1.772501 0,-1.043864 0.733805,-1.77767 0.738973,-0.733805 1.772502,-0.733805 1.043864,0 1.777669,0.733805 0.645955,0.651123 0.645955,1.545126 z"
         style="font-style:normal;font-variant:normal;font-weight:normal;font-stretch:normal;line-height:0.89999998;font-family:'Champagne &amp; Limousines';-inkscape-font-specification:'Champagne &amp; Limousines';fill:#ffffff;stroke-width:0.26458332"
         id="path4396"
         inkscape:connector-curvature="0" />
      <path
         d="m 50.606923,20.50257 v 7.307047 H 50.193512 V 20.50257 Z"
         style="font-style:normal;font-variant:normal;font-weight:normal;font-stretch:normal;line-height:0.89999998;font-family:'Champagne &amp; Limousines';-inkscape-font-specification:'Champagne &amp; Limousines';fill:#ffffff;stroke-width:0.26458332"
         id="path4398"
         inkscape:connector-curvature="0" />
      <path
         d="m 56.513539,27.809617 h -0.413411 v -0.914672 q -0.118856,0.160197 -0.258382,0.304891 -0.733806,0.738973 -1.777669,0.738973 -1.033529,0 -1.772502,-0.733806 -0.733805,-0.738973 -0.733805,-1.772501 0,-1.043864 0.733805,-1.77767 0.738973,-0.733805 1.772502,-0.733805 1.043863,0 1.777669,0.733805 0.139526,0.144694 0.258382,0.304891 v -0.63562 h 0.413411 z m -0.413411,-1.974039 v -0.81132 q -0.113688,-0.604614 -0.568441,-1.059367 -0.609782,-0.609782 -1.46761,-0.609782 -0.857829,0 -1.467611,0.609782 -0.604614,0.609782 -0.604614,1.467611 0,0.857828 0.604614,1.462443 0.609782,0.604614 1.467611,0.604614 0.857828,0 1.46761,-0.609782 0.454753,-0.454753 0.568441,-1.054199 z"
         style="font-style:normal;font-variant:normal;font-weight:normal;font-stretch:normal;line-height:0.89999998;font-family:'Champagne &amp; Limousines';-inkscape-font-specification:'Champagne &amp; Limousines';fill:#ffffff;stroke-width:0.26458332"
         id="path4400"
         inkscape:connector-curvature="0" />
      <path
         d="m 58.65811,25.401496 q -0.521932,-0.284221 -0.72347,-0.485759 -0.315226,-0.315226 -0.315226,-0.759643 0,-0.444417 0.315226,-0.759644 0.315226,-0.320394 0.759644,-0.320394 0.444417,0 0.738973,0.294556 0.28422,0.28422 0.28422,0.651123 v 0.02067 l -0.356567,0.144694 q -0.04651,-0.346232 -0.217041,-0.521932 -0.170533,-0.1757 -0.449585,-0.1757 -0.273885,0 -0.470256,0.19637 -0.19637,0.196371 -0.19637,0.470256 0,0.273885 0.19637,0.470255 0.113688,0.118856 0.480591,0.3514 0.583944,0.315226 0.83199,0.563273 0.387574,0.392741 0.387574,0.935344 0,0.558105 -0.387574,0.950846 -0.387573,0.387573 -0.940511,0.387573 -0.552937,0 -0.940511,-0.387573 -0.387573,-0.392741 -0.387573,-0.857829 l 0.408244,-0.103353 q 0,0.397909 0.268717,0.671794 0.273885,0.268717 0.651123,0.268717 0.377238,0 0.651123,-0.268717 0.273886,-0.273885 0.273886,-0.661458 0,-0.377238 -0.273886,-0.645956 -0.144694,-0.144694 -0.589111,-0.428913 z"
         style="font-style:normal;font-variant:normal;font-weight:normal;font-stretch:normal;line-height:0.89999998;font-family:'Champagne &amp; Limousines';-inkscape-font-specification:'Champagne &amp; Limousines';fill:#ffffff;stroke-width:0.26458332"
         id="path4402"
         inkscape:connector-curvature="0" />
      <path
         d="M 66.936675,24.1871 65.825631,21.122687 64.70942,24.1871 Z m -0.89917,-3.68453 2.651001,7.307047 h -0.434083 l -1.167887,-3.214274 h -2.526977 l -1.188558,3.214274 h -0.43925 l 2.682007,-7.307047 z"
         style="font-style:normal;font-variant:normal;font-weight:normal;font-stretch:normal;line-height:0.89999998;font-family:'Champagne &amp; Limousines';-inkscape-font-specification:'Champagne &amp; Limousines';fill:#ffffff;stroke-width:0.26458332"
         id="path4404"
         inkscape:connector-curvature="0" />
      <path
         d="m 70.802072,23.685838 q -0.43925,0.06718 -0.862997,0.558106 -0.423746,0.490926 -0.423746,0.992187 v 2.573486 h -0.413412 v -4.485514 h 0.413412 v 0.971517 q 0.258382,-0.676961 1.059366,-1.00769 z"
         style="font-style:normal;font-variant:normal;font-weight:normal;font-stretch:normal;line-height:0.89999998;font-family:'Champagne &amp; Limousines';-inkscape-font-specification:'Champagne &amp; Limousines';fill:#ffffff;stroke-width:0.26458332"
         id="path4406"
         inkscape:connector-curvature="0" />
      <path
         d="m 71.892444,23.324103 v -1.90686 h 0.408244 v 1.90686 h 0.914673 v 0.413412 h -0.914673 v 4.072102 h -0.408244 v -4.072102 h -0.914672 v -0.413412 z"
         style="font-style:normal;font-variant:normal;font-weight:normal;font-stretch:normal;line-height:0.89999998;font-family:'Champagne &amp; Limousines';-inkscape-font-specification:'Champagne &amp; Limousines';fill:#ffffff;stroke-width:0.26458332"
         id="path4408"
         inkscape:connector-curvature="0" />
      <path
         d="m 74.171376,24.781379 h 3.937744 q -0.144694,-0.470256 -0.490926,-0.816488 -0.609782,-0.609782 -1.46761,-0.609782 -0.857829,0 -1.467611,0.609782 -0.361735,0.366903 -0.511597,0.816488 z m -0.07751,0.418579 q -0.0155,0.10852 -0.0155,0.232544 0,0.857828 0.604614,1.462443 0.609782,0.604614 1.467611,0.604614 0.857828,0 1.46761,-0.609782 0.103353,-0.103353 0.196371,-0.217041 l 0.439249,0.155029 q -0.07751,0.129191 -0.325561,0.372071 -0.733805,0.738973 -1.777669,0.738973 -1.033529,0 -1.772502,-0.733806 -0.733805,-0.738973 -0.733805,-1.772501 0,-1.043864 0.733805,-1.77767 0.738973,-0.733805 1.772502,-0.733805 1.043864,0 1.777669,0.733805 0.645955,0.651123 0.645955,1.545126 z"
         style="font-style:normal;font-variant:normal;font-weight:normal;font-stretch:normal;line-height:0.89999998;font-family:'Champagne &amp; Limousines';-inkscape-font-specification:'Champagne &amp; Limousines';fill:#ffffff;stroke-width:0.26458332"
         id="path4410"
         inkscape:connector-curvature="0" />
      <path
         d="m 80.444895,25.401496 q -0.521932,-0.284221 -0.72347,-0.485759 -0.315226,-0.315226 -0.315226,-0.759643 0,-0.444417 0.315226,-0.759644 0.315226,-0.320394 0.759644,-0.320394 0.444417,0 0.738973,0.294556 0.28422,0.28422 0.28422,0.651123 v 0.02067 l -0.356567,0.144694 q -0.04651,-0.346232 -0.217041,-0.521932 -0.170533,-0.1757 -0.449585,-0.1757 -0.273885,0 -0.470256,0.19637 -0.19637,0.196371 -0.19637,0.470256 0,0.273885 0.19637,0.470255 0.113688,0.118856 0.480591,0.3514 0.583944,0.315226 0.831991,0.563273 0.387573,0.392741 0.387573,0.935344 0,0.558105 -0.387573,0.950846 -0.387574,0.387573 -0.940511,0.387573 -0.552938,0 -0.940512,-0.387573 -0.387573,-0.392741 -0.387573,-0.857829 l 0.408244,-0.103353 q 0,0.397909 0.268718,0.671794 0.273885,0.268717 0.651123,0.268717 0.377237,0 0.651123,-0.268717 0.273885,-0.273885 0.273885,-0.661458 0,-0.377238 -0.273885,-0.645956 -0.144694,-0.144694 -0.589112,-0.428913 z"
         style="font-style:normal;font-variant:normal;font-weight:normal;font-stretch:normal;line-height:0.89999998;font-family:'Champagne &amp; Limousines';-inkscape-font-specification:'Champagne &amp; Limousines';fill:#ffffff;stroke-width:0.26458332"
         id="path4412"
         inkscape:connector-curvature="0" />
      <path
         d="m 45.222239,36.415154 0.315226,0.279053 q -1.069702,0.971516 -2.516642,0.971516 -1.555461,0 -2.651001,-1.090372 -1.090373,-1.095541 -1.090373,-2.651001 0,-1.545125 1.090373,-2.640666 1.09554,-1.100708 2.651001,-1.100708 1.44694,0 2.516642,0.976685 l -0.315226,0.279053 q -0.940511,-0.831991 -2.201416,-0.831991 -1.374593,0 -2.351278,0.971517 -0.971517,0.971517 -0.971517,2.34611 0,1.379761 0.971517,2.351277 0.976685,0.971517 2.351278,0.971517 1.260905,0 2.201416,-0.83199 z"
         style="font-style:normal;font-variant:normal;font-weight:normal;font-stretch:normal;line-height:0.89999998;font-family:'Champagne &amp; Limousines';-inkscape-font-specification:'Champagne &amp; Limousines';fill:#ffffff;stroke-width:0.26458332"
         id="path4414"
         inkscape:connector-curvature="0" />
      <path
         d="m 48.741404,32.689283 q 1.043864,0 1.772501,0.733805 0.733806,0.733806 0.733806,1.77767 0,1.033528 -0.733806,1.772501 -0.728637,0.733806 -1.772501,0.733806 -1.033529,0 -1.772502,-0.733806 -0.733805,-0.738973 -0.733805,-1.772501 0,-1.043864 0.733805,-1.77767 0.738973,-0.733805 1.772502,-0.733805 z m 0,0.434082 q -0.857829,0 -1.467611,0.609782 -0.604614,0.609782 -0.604614,1.467611 0,0.857828 0.604614,1.462443 0.609782,0.604614 1.467611,0.604614 0.857829,0 1.462443,-0.604614 0.609782,-0.604615 0.609782,-1.462443 0,-0.857829 -0.609782,-1.467611 -0.604614,-0.609782 -1.462443,-0.609782 z"
         style="font-style:normal;font-variant:normal;font-weight:normal;font-stretch:normal;line-height:0.89999998;font-family:'Champagne &amp; Limousines';-inkscape-font-specification:'Champagne &amp; Limousines';fill:#ffffff;stroke-width:0.26458332"
         id="path4416"
         inkscape:connector-curvature="0" />
      <path
         d="m 52.555124,34.094882 v 3.482991 h -0.413411 v -4.485514 h 0.413411 v 0.289388 q 0.558106,-0.558105 1.302246,-0.558105 0.795817,0 1.291911,0.501261 0.501261,0.496094 0.511597,1.25057 v 3.0024 h -0.408244 v -2.961059 q 0,-0.573608 -0.413412,-0.976685 -0.413411,-0.403076 -0.981852,-0.403076 -0.563273,0 -0.976684,0.397909 -0.222209,0.222208 -0.325562,0.45992 z"
         style="font-style:normal;font-variant:normal;font-weight:normal;font-stretch:normal;line-height:0.89999998;font-family:'Champagne &amp; Limousines';-inkscape-font-specification:'Champagne &amp; Limousines';fill:#ffffff;stroke-width:0.26458332"
         id="path4418"
         inkscape:connector-curvature="0" />
      <path
         d="m 57.851958,35.169752 q -0.521932,-0.284221 -0.72347,-0.485759 -0.315226,-0.315226 -0.315226,-0.759643 0,-0.444417 0.315226,-0.759644 0.315226,-0.320394 0.759643,-0.320394 0.444418,0 0.738973,0.294556 0.284221,0.28422 0.284221,0.651123 v 0.02067 l -0.356568,0.144694 q -0.04651,-0.346232 -0.217041,-0.521932 -0.170532,-0.1757 -0.449585,-0.1757 -0.273885,0 -0.470255,0.19637 -0.196371,0.196371 -0.196371,0.470256 0,0.273885 0.196371,0.470255 0.113688,0.118856 0.480591,0.3514 0.583943,0.315226 0.83199,0.563273 0.387573,0.392741 0.387573,0.935344 0,0.558105 -0.387573,0.950846 -0.387573,0.387573 -0.940511,0.387573 -0.552938,0 -0.940511,-0.387573 -0.387573,-0.392741 -0.387573,-0.857829 l 0.408244,-0.103353 q 0,0.397909 0.268717,0.671794 0.273885,0.268717 0.651123,0.268717 0.377238,0 0.651123,-0.268717 0.273885,-0.273885 0.273885,-0.661458 0,-0.377238 -0.273885,-0.645956 -0.144694,-0.144694 -0.589111,-0.428913 z"
         style="font-style:normal;font-variant:normal;font-weight:normal;font-stretch:normal;line-height:0.89999998;font-family:'Champagne &amp; Limousines';-inkscape-font-specification:'Champagne &amp; Limousines';fill:#ffffff;stroke-width:0.26458332"
         id="path4420"
         inkscape:connector-curvature="0" />
      <path
         d="m 60.301421,34.549635 h 3.937744 q -0.144694,-0.470256 -0.490926,-0.816488 -0.609782,-0.609782 -1.46761,-0.609782 -0.857829,0 -1.467611,0.609782 -0.361735,0.366903 -0.511597,0.816488 z m -0.07751,0.418579 q -0.0155,0.10852 -0.0155,0.232544 0,0.857828 0.604614,1.462443 0.609782,0.604614 1.467611,0.604614 0.857828,0 1.46761,-0.609782 0.103353,-0.103353 0.196371,-0.217041 l 0.439249,0.155029 q -0.07751,0.129191 -0.325561,0.372071 -0.733805,0.738973 -1.777669,0.738973 -1.033529,0 -1.772502,-0.733806 -0.733805,-0.738973 -0.733805,-1.772501 0,-1.043864 0.733805,-1.77767 0.738973,-0.733805 1.772502,-0.733805 1.043864,0 1.777669,0.733805 0.645955,0.651123 0.645955,1.545126 z"
         style="font-style:normal;font-variant:normal;font-weight:normal;font-stretch:normal;line-height:0.89999998;font-family:'Champagne &amp; Limousines';-inkscape-font-specification:'Champagne &amp; Limousines';fill:#ffffff;stroke-width:0.26458332"
         id="path4422"
         inkscape:connector-curvature="0" />
      <path
         d="m 66.998687,33.454094 q -0.43925,0.06718 -0.862996,0.558106 -0.423747,0.490926 -0.423747,0.992187 v 2.573486 h -0.413412 v -4.485514 h 0.413412 v 0.971517 q 0.258382,-0.676961 1.059367,-1.00769 z"
         style="font-style:normal;font-variant:normal;font-weight:normal;font-stretch:normal;line-height:0.89999998;font-family:'Champagne &amp; Limousines';-inkscape-font-specification:'Champagne &amp; Limousines';fill:#ffffff;stroke-width:0.26458332"
         id="path4424"
         inkscape:connector-curvature="0" />
      <path
         d="m 71.595306,33.092359 -2.005046,4.485514 h -0.217041 l -1.984375,-4.485514 h 0.480591 l 1.612304,3.736206 1.632976,-3.736206 z"
         style="font-style:normal;font-variant:normal;font-weight:normal;font-stretch:normal;line-height:0.89999998;font-family:'Champagne &amp; Limousines';-inkscape-font-specification:'Champagne &amp; Limousines';fill:#ffffff;stroke-width:0.26458332"
         id="path4426"
         inkscape:connector-curvature="0" />
      <path
         d="m 76.936067,37.577873 h -0.413412 v -0.914672 q -0.118856,0.160197 -0.258382,0.304891 -0.733805,0.738973 -1.777669,0.738973 -1.033529,0 -1.772502,-0.733806 -0.733805,-0.738973 -0.733805,-1.772501 0,-1.043864 0.733805,-1.77767 0.738973,-0.733805 1.772502,-0.733805 1.043864,0 1.777669,0.733805 0.139526,0.144694 0.258382,0.304891 v -0.63562 h 0.413412 z m -0.413412,-1.974039 v -0.81132 q -0.113688,-0.604614 -0.568441,-1.059367 -0.609781,-0.609782 -1.46761,-0.609782 -0.857829,0 -1.467611,0.609782 -0.604614,0.609782 -0.604614,1.467611 0,0.857828 0.604614,1.462443 0.609782,0.604614 1.467611,0.604614 0.857829,0 1.46761,-0.609782 0.454753,-0.454753 0.568441,-1.054199 z"
         style="font-style:normal;font-variant:normal;font-weight:normal;font-stretch:normal;line-height:0.89999998;font-family:'Champagne &amp; Limousines';-inkscape-font-specification:'Champagne &amp; Limousines';fill:#ffffff;stroke-width:0.26458332"
         id="path4428"
         inkscape:connector-curvature="0" />
      <path
         d="m 78.486358,33.092359 v -1.90686 h 0.408244 v 1.90686 h 0.914673 v 0.413412 h -0.914673 v 4.072102 h -0.408244 v -4.072102 h -0.914672 v -0.413412 z"
         style="font-style:normal;font-variant:normal;font-weight:normal;font-stretch:normal;line-height:0.89999998;font-family:'Champagne &amp; Limousines';-inkscape-font-specification:'Champagne &amp; Limousines';fill:#ffffff;stroke-width:0.26458332"
         id="path4430"
         inkscape:connector-curvature="0" />
      <path
         d="m 82.847847,32.689283 q 1.043864,0 1.772501,0.733805 0.733806,0.733806 0.733806,1.77767 0,1.033528 -0.733806,1.772501 -0.728637,0.733806 -1.772501,0.733806 -1.033529,0 -1.772502,-0.733806 -0.733805,-0.738973 -0.733805,-1.772501 0,-1.043864 0.733805,-1.77767 0.738973,-0.733805 1.772502,-0.733805 z m 0,0.434082 q -0.857829,0 -1.467611,0.609782 -0.604614,0.609782 -0.604614,1.467611 0,0.857828 0.604614,1.462443 0.609782,0.604614 1.467611,0.604614 0.857829,0 1.462443,-0.604614 0.609782,-0.604615 0.609782,-1.462443 0,-0.857829 -0.609782,-1.467611 -0.604614,-0.609782 -1.462443,-0.609782 z m 1.002523,-1.834513 -1.121379,0.852661 h -0.382406 l 0.744141,-0.852661 z"
         style="font-style:normal;font-variant:normal;font-weight:normal;font-stretch:normal;line-height:0.89999998;font-family:'Champagne &amp; Limousines';-inkscape-font-specification:'Champagne &amp; Limousines';fill:#ffffff;stroke-width:0.26458332"
         id="path4432"
         inkscape:connector-curvature="0" />
      <path
         d="m 87.834623,33.454094 q -0.43925,0.06718 -0.862997,0.558106 -0.423747,0.490926 -0.423747,0.992187 v 2.573486 h -0.413411 v -4.485514 h 0.413411 v 0.971517 q 0.258383,-0.676961 1.059367,-1.00769 z"
         style="font-style:normal;font-variant:normal;font-weight:normal;font-stretch:normal;line-height:0.89999998;font-family:'Champagne &amp; Limousines';-inkscape-font-specification:'Champagne &amp; Limousines';fill:#ffffff;stroke-width:0.26458332"
         id="path4434"
         inkscape:connector-curvature="0" />
      <path
         d="m 88.868151,33.092359 v 4.485514 h -0.408244 v -4.485514 z m -0.201538,-1.586466 q 0.165365,0 0.28422,0.118856 0.124024,0.118855 0.124024,0.28422 0,0.1757 -0.124024,0.294556 -0.118855,0.118855 -0.28422,0.118855 -0.170532,0 -0.294556,-0.118855 -0.118855,-0.118856 -0.118855,-0.294556 0,-0.165365 0.118855,-0.28422 0.124024,-0.118856 0.294556,-0.118856 z"
         style="font-style:normal;font-variant:normal;font-weight:normal;font-stretch:normal;line-height:0.89999998;font-family:'Champagne &amp; Limousines';-inkscape-font-specification:'Champagne &amp; Limousines';fill:#ffffff;stroke-width:0.26458332"
         id="path4436"
         inkscape:connector-curvature="0" />
      <path
         d="m 92.356312,32.689283 q 1.043863,0 1.772501,0.733805 0.733805,0.733806 0.733805,1.77767 0,1.033528 -0.733805,1.772501 -0.728638,0.733806 -1.772501,0.733806 -1.033529,0 -1.772502,-0.733806 -0.733805,-0.738973 -0.733805,-1.772501 0,-1.043864 0.733805,-1.77767 0.738973,-0.733805 1.772502,-0.733805 z m 0,0.434082 q -0.857829,0 -1.467611,0.609782 -0.604614,0.609782 -0.604614,1.467611 0,0.857828 0.604614,1.462443 0.609782,0.604614 1.467611,0.604614 0.857828,0 1.462443,-0.604614 0.609781,-0.604615 0.609781,-1.462443 0,-0.857829 -0.609781,-1.467611 -0.604615,-0.609782 -1.462443,-0.609782 z"
         style="font-style:normal;font-variant:normal;font-weight:normal;font-stretch:normal;line-height:0.89999998;font-family:'Champagne &amp; Limousines';-inkscape-font-specification:'Champagne &amp; Limousines';fill:#ffffff;stroke-width:0.26458332"
         id="path4438"
         inkscape:connector-curvature="0" />
      <path
         d="m 43.949964,47.176256 h -0.413412 v -0.914672 q -0.118856,0.160197 -0.258382,0.304891 -0.733805,0.738973 -1.777669,0.738973 -1.033529,0 -1.772502,-0.733806 -0.733805,-0.738973 -0.733805,-1.772501 0,-1.043864 0.733805,-1.77767 0.738973,-0.733805 1.772502,-0.733805 1.043864,0 1.777669,0.733805 0.139526,0.144694 0.258382,0.304891 v -3.457153 h 0.413412 z m -0.413412,-1.974039 v -0.81132 q -0.113688,-0.604614 -0.568441,-1.059367 -0.609782,-0.609782 -1.46761,-0.609782 -0.857829,0 -1.467611,0.609782 -0.604614,0.609782 -0.604614,1.467611 0,0.857828 0.604614,1.462443 0.609782,0.604614 1.467611,0.604614 0.857828,0 1.46761,-0.609782 0.454753,-0.454753 0.568441,-1.054199 z"
         style="font-style:normal;font-variant:normal;font-weight:normal;font-stretch:normal;line-height:0.89999998;font-family:'Champagne &amp; Limousines';-inkscape-font-specification:'Champagne &amp; Limousines';fill:#ffffff;stroke-width:0.26458332"
         id="path4440"
         inkscape:connector-curvature="0" />
      <path
         d="m 45.216036,44.148018 h 3.93774 q -0.14469,-0.470256 -0.49093,-0.816488 -0.60978,-0.609782 -1.46761,-0.609782 -0.85783,0 -1.46761,0.609782 -0.36173,0.366903 -0.51159,0.816488 z m -0.0775,0.418579 q -0.0155,0.10852 -0.0155,0.232544 0,0.857828 0.60461,1.462443 0.60978,0.604614 1.46761,0.604614 0.85783,0 1.46761,-0.609782 0.10336,-0.103353 0.19637,-0.217041 l 0.43925,0.155029 q -0.0775,0.129191 -0.32556,0.372071 -0.7338,0.738973 -1.77767,0.738973 -1.03353,0 -1.7725,-0.733806 -0.733804,-0.738973 -0.733804,-1.772501 0,-1.043864 0.733804,-1.77767 0.73897,-0.733805 1.7725,-0.733805 1.04387,0 1.77767,0.733805 0.64596,0.651123 0.64596,1.545126 z"
         style="font-style:normal;font-variant:normal;font-weight:normal;font-stretch:normal;line-height:0.89999998;font-family:'Champagne &amp; Limousines';-inkscape-font-specification:'Champagne &amp; Limousines';fill:#ffffff;stroke-width:0.26458332"
         id="path4442"
         inkscape:connector-curvature="0" />
      <path
         d="m 54.373096,39.869209 q 1.80351,0.01033 2.7957,1.007691 1.09554,1.100708 1.09554,2.645833 0,1.55546 -1.09554,2.651001 -0.99219,0.992187 -2.7957,1.002522 h -1.35392 v -7.307047 z m -0.94051,0.428915 v 6.454386 h 0.93535 q 1.57613,0 2.48563,-0.8785 0.97152,-0.971516 0.97152,-2.351277 0,-1.374593 -0.97152,-2.351278 -0.9095,-0.873331 -2.48563,-0.873331 z"
         style="font-style:normal;font-variant:normal;font-weight:normal;font-stretch:normal;line-height:0.89999998;font-family:'Champagne &amp; Limousines';-inkscape-font-specification:'Champagne &amp; Limousines';fill:#ffffff;stroke-width:0.26458332"
         id="path4444"
         inkscape:connector-curvature="0" />
      <path
         d="m 63.917736,47.176256 h -0.41341 v -0.914672 q -0.11886,0.160197 -0.25838,0.304891 -0.73381,0.738973 -1.77767,0.738973 -1.03353,0 -1.7725,-0.733806 -0.73381,-0.738973 -0.73381,-1.772501 0,-1.043864 0.73381,-1.77767 0.73897,-0.733805 1.7725,-0.733805 1.04386,0 1.77767,0.733805 0.13952,0.144694 0.25838,0.304891 v -0.63562 h 0.41341 z m -0.41341,-1.974039 v -0.81132 q -0.11369,-0.604614 -0.56844,-1.059367 -0.60978,-0.609782 -1.46761,-0.609782 -0.85783,0 -1.46761,0.609782 -0.60462,0.609782 -0.60462,1.467611 0,0.857828 0.60462,1.462443 0.60978,0.604614 1.46761,0.604614 0.85783,0 1.46761,-0.609782 0.45475,-0.454753 0.56844,-1.054199 z"
         style="font-style:normal;font-variant:normal;font-weight:normal;font-stretch:normal;line-height:0.89999998;font-family:'Champagne &amp; Limousines';-inkscape-font-specification:'Champagne &amp; Limousines';fill:#ffffff;stroke-width:0.26458332"
         id="path4446"
         inkscape:connector-curvature="0" />
      <path
         d="m 65.312996,43.693265 v 3.482991 h -0.41341 v -4.485514 h 0.41341 v 0.289388 q 0.55811,-0.558105 1.30225,-0.558105 0.79581,0 1.29191,0.501261 0.50126,0.496094 0.51159,1.25057 v 3.0024 h -0.40824 v -2.961059 q 0,-0.573608 -0.41341,-0.976685 -0.41341,-0.403076 -0.98185,-0.403076 -0.56328,0 -0.97669,0.397909 -0.22221,0.222208 -0.32556,0.45992 z"
         style="font-style:normal;font-variant:normal;font-weight:normal;font-stretch:normal;line-height:0.89999998;font-family:'Champagne &amp; Limousines';-inkscape-font-specification:'Champagne &amp; Limousines';fill:#ffffff;stroke-width:0.26458332"
         id="path4448"
         inkscape:connector-curvature="0" />
      <path
         d="m 71.219616,47.258939 q -0.72347,-0.134359 -1.27641,-0.692464 -0.73897,-0.733806 -0.73897,-1.772502 0,-1.038696 0.73381,-1.772502 0.73897,-0.733805 1.7725,-0.733805 1.04386,0 1.77767,0.733805 0.14986,0.149862 0.26871,0.310059 l -0.43408,0.160197 q -0.0672,-0.08268 -0.14469,-0.165365 -0.60978,-0.604614 -1.46761,-0.604614 -0.85266,0 -1.46245,0.609782 -0.60461,0.604614 -0.60461,1.462443 0,0.857829 0.60461,1.467611 0.60979,0.604614 1.46245,0.604614 0.85783,0 1.46761,-0.609782 0.0775,-0.07751 0.14469,-0.160197 l 0.43408,0.160197 q -0.11885,0.160197 -0.26871,0.310059 -0.73381,0.738973 -1.77767,0.738973 -0.0878,0 -0.17054,-0.0052 l -0.0568,0.144694 q 0.47542,0.03617 0.60978,0.315226 0.0724,0.149862 0.0724,0.289388 0,0.118856 -0.0568,0.227376 -0.11886,0.232544 -0.43925,0.284221 -0.11886,0.02067 -0.22221,0.02067 -0.1757,0 -0.29973,-0.05684 -0.20153,-0.08785 -0.34623,-0.201538 l 0.1912,-0.206705 q 0.1757,0.180867 0.37724,0.180867 0.0517,0 0.10852,-0.0155 0.24288,-0.05684 0.24288,-0.294556 v -0.03101 q -0.0155,-0.222209 -0.51159,-0.222209 -0.0879,0 -0.19121,0.0052 z"
         style="font-style:normal;font-variant:normal;font-weight:normal;font-stretch:normal;line-height:0.89999998;font-family:'Champagne &amp; Limousines';-inkscape-font-specification:'Champagne &amp; Limousines';fill:#ffffff;stroke-width:0.26458332"
         id="path4450"
         inkscape:connector-curvature="0" />
      <path
         d="m 79.358656,47.176256 h -0.41341 v -0.914672 q -0.11886,0.160197 -0.25838,0.304891 -0.73381,0.738973 -1.77767,0.738973 -1.03353,0 -1.77251,-0.733806 -0.7338,-0.738973 -0.7338,-1.772501 0,-1.043864 0.7338,-1.77767 0.73898,-0.733805 1.77251,-0.733805 1.04386,0 1.77767,0.733805 0.13952,0.144694 0.25838,0.304891 v -0.63562 h 0.41341 z m -0.41341,-1.974039 v -0.81132 q -0.11369,-0.604614 -0.56844,-1.059367 -0.60979,-0.609782 -1.46761,-0.609782 -0.85783,0 -1.46761,0.609782 -0.60462,0.609782 -0.60462,1.467611 0,0.857828 0.60462,1.462443 0.60978,0.604614 1.46761,0.604614 0.85782,0 1.46761,-0.609782 0.45475,-0.454753 0.56844,-1.054199 z"
         style="font-style:normal;font-variant:normal;font-weight:normal;font-stretch:normal;line-height:0.89999998;font-family:'Champagne &amp; Limousines';-inkscape-font-specification:'Champagne &amp; Limousines';fill:#ffffff;stroke-width:0.26458332"
         id="path4452"
         inkscape:connector-curvature="0" />
    </g>
    <path
       style="fill:#ffffff;stroke:none;stroke-width:0.00903468"
       inkscape:connector-curvature="0"
       id="path441"
       d="m 23.988225,48.089103 c -0.487873,-1.3281 -0.533047,-1.653349 -0.334283,-2.27674 0.171658,-0.569187 0.153589,-1.300995 -0.07228,-2.466471 -0.08131,-0.415594 -0.180694,-1.264853 -0.207798,-1.897283 -0.04517,-0.912503 -0.108416,-1.264854 -0.280075,-1.707554 -0.225867,-0.560152 -0.388491,-0.731811 -0.388491,-0.406562 -0.009,0.117451 -0.05421,0.09035 -0.243937,-0.117449 l -0.234901,-0.262008 -0.135521,0.198765 c -0.144555,0.216833 -0.451734,0.271041 -0.524011,0.08131 -0.04517,-0.126484 -0.343318,-0.144554 -0.451735,-0.03614 -0.153589,0.153589 -0.234901,0.03614 -0.189728,-0.25297 0.06324,-0.397527 -0.06324,-0.406563 -0.451734,-0.02711 -0.252971,0.243935 -0.298145,0.262006 -0.298145,0.117448 0,-0.135518 -0.0271,-0.144553 -0.108416,-0.06324 -0.153589,0.15359 -0.343318,0.135519 -0.343318,-0.02711 0,-0.08131 -0.05421,-0.108416 -0.13552,-0.08131 -0.09938,0.04517 -0.13552,-0.009 -0.13552,-0.189727 0,-0.243938 -0.009,-0.243938 -0.162625,-0.108416 -0.09035,0.09035 -0.216832,0.153589 -0.27104,0.153589 -0.15359,0 -0.28911,-0.316213 -0.28911,-0.677602 0,-0.316214 -0.01807,-0.334284 -0.234902,-0.280076 -0.126485,0.03614 -0.316214,0.03614 -0.415595,0 -0.171659,-0.05419 -0.180694,-0.09936 -0.126486,-0.67758 l 0.06324,-0.623393 h -0.379457 c -0.361387,0 -0.370422,-0.009 -0.334283,-0.243937 0.0271,-0.144555 0.06324,-0.316214 0.08131,-0.388491 0.0271,-0.108416 -0.04517,-0.126486 -0.361387,-0.108416 -0.415596,0.03614 -0.433665,0.01807 -0.234902,-0.451735 0.05421,-0.126485 0.01807,-0.162624 -0.13552,-0.162624 -0.117451,0 -0.216833,-0.07228 -0.243937,-0.180694 -0.03614,-0.126485 -0.126485,-0.180693 -0.298144,-0.180693 -0.361388,0 -0.460769,-0.171659 -0.397526,-0.668567 0.05421,-0.361387 0.03614,-0.415595 -0.09938,-0.415595 -0.126485,0 -0.144555,-0.05421 -0.09938,-0.28911 0.0271,-0.15359 0.11745,-0.352353 0.189728,-0.433665 0.09938,-0.108416 0.108416,-0.171659 0.03614,-0.243937 -0.07228,-0.07228 -0.07228,-0.153589 -0.009,-0.27104 0.07228,-0.126486 0.05421,-0.207798 -0.08131,-0.352353 -0.216832,-0.234901 -0.144555,-0.451734 0.162624,-0.533046 l 0.234902,-0.05421 -0.198763,-0.207798 c -0.243936,-0.252971 -0.243936,-0.487873 0,-0.740844 0.180694,-0.189729 0.180694,-0.234902 0.08131,-0.487873 -0.06324,-0.15359 -0.09938,-0.28911 -0.08131,-0.298145 0.01807,-0.009 0.216833,-0.08131 0.433665,-0.15359 0.533046,-0.180693 0.641463,-0.370422 0.4427,-0.731809 -0.198763,-0.334283 -0.207798,-0.442699 -0.0271,-0.442699 0.09035,0 0.13552,-0.09035 0.13552,-0.298145 0,-0.379457 0.08131,-0.460769 0.262006,-0.298144 0.08131,0.06324 0.234901,0.153589 0.352352,0.180693 0.189729,0.06324 0.198763,0.03614 0.198763,-0.343318 0,-0.352352 0.0271,-0.415595 0.180694,-0.415595 0.09938,0 0.180694,-0.06324 0.180694,-0.135521 0,-0.06324 0.05421,-0.162624 0.126485,-0.198763 0.162625,-0.09938 0.505943,-0.749878 0.505943,-0.975745 0,-0.298145 0.11745,-0.379457 0.524011,-0.379457 0.307179,0 0.451735,-0.05421 0.632428,-0.243937 l 0.243936,-0.234902 0.06324,-2.601988 c 0.04517,-2.222533 0.08131,-2.71944 0.252971,-3.45125 0.108417,-0.469804 0.234902,-1.201613 0.271041,-1.626243 0.09035,-1.057058 0.180694,-1.373272 0.370422,-1.418445 0.09938,-0.0271 0.189728,-0.162624 0.216832,-0.334284 0.08131,-0.397526 0.334284,-0.71374 0.524012,-0.641462 0.343318,0.13552 0.307179,1.481688 -0.05421,2.367087 -0.180694,0.415595 -0.262006,0.912503 -0.406561,2.466469 -0.198763,1.996665 -0.189728,2.394191 0.08131,4.0114 0.108416,0.641462 0.262006,0.677601 0.262006,0.05421 0,-0.460769 0.433665,-0.993816 1.192578,-1.481689 0.343318,-0.216832 1.228717,-0.433664 1.300995,-0.316213 0.0271,0.05421 0.108416,0.04517 0.198763,-0.0271 0.117451,-0.09938 0.13552,-0.09035 0.08131,0.09035 -0.03614,0.171659 -0.01807,0.198763 0.09035,0.162624 0.189728,-0.07228 0.496907,0.0271 0.433665,0.135521 -0.03614,0.04517 0.009,0.108416 0.08131,0.13552 0.189728,0.07228 0.180694,0.198763 0,0.234902 -0.09938,0.01807 -0.162624,0.13552 -0.180694,0.343318 -0.01807,0.171659 -0.05421,0.505942 -0.08131,0.740844 l -0.05421,0.433665 0.280075,-0.05421 c 0.262006,-0.05421 0.271041,-0.04517 0.271041,0.262005 0,0.252972 0.02711,0.316214 0.13552,0.280076 0.07228,-0.03614 0.243937,-0.0271 0.370422,0 0.180694,0.04517 0.225867,0.108416 0.216832,0.307179 -0.04517,0.632427 -0.0271,0.650497 0.415596,0.650497 0.460769,0 0.795052,0.13552 0.731809,0.307179 -0.08131,0.198763 0.876365,-0.325249 1.391342,-0.767948 0.280075,-0.243936 0.605323,-0.632428 0.722774,-0.86733 0.180694,-0.361387 0.30718,-0.478838 0.740844,-0.686635 l 0.524012,-0.252972 0.307179,0.189729 c 0.433665,0.27104 0.406561,0.514977 -0.13552,1.310029 -0.569185,0.813122 -0.641463,0.876364 -1.463619,1.328098 -0.361387,0.198763 -0.596289,0.343318 -0.524012,0.316214 0.07228,-0.01807 0.469804,-0.108416 0.8854,-0.198763 0.930572,-0.198763 1.174508,-0.144555 2.339983,0.569185 0.767948,0.469804 1.029954,0.740844 0.71374,0.740844 -0.08131,0 -0.108416,0.07228 -0.07228,0.225868 0.05421,0.307179 -0.06324,0.280075 -0.623393,-0.135521 -0.56015,-0.42463 -0.659532,-0.442699 -0.587254,-0.13552 0.03614,0.15359 0.01807,0.243937 -0.07228,0.280075 -0.216832,0.08131 -0.469804,-0.117451 -0.722775,-0.551115 -0.13552,-0.225868 -0.252971,-0.406561 -0.27104,-0.406561 -0.01807,0 -0.252971,0.09938 -0.514977,0.216832 -0.271041,0.126486 -0.758913,0.28911 -1.093197,0.379457 -0.343318,0.08131 -0.614358,0.180693 -0.614358,0.225867 0,0.04517 0.04517,0.08131 0.09938,0.08131 0.05421,0 0.08131,0.06324 0.04517,0.13552 -0.0271,0.07228 -0.009,0.234902 0.04517,0.352353 0.08131,0.162624 0.06324,0.280075 -0.05421,0.505942 -0.15359,0.298145 -0.126486,0.370422 0.171659,0.478838 0.05421,0.01807 0.01807,0.126486 -0.06324,0.243937 -0.189728,0.27104 -0.189728,0.361388 -0.009,0.361388 0.108416,0 0.13552,0.05421 0.09035,0.207797 -0.171659,0.587255 -0.162625,0.677601 0.0271,0.776983 0.180694,0.09938 0.252971,0.370422 0.126486,0.487873 -0.09938,0.108416 -0.09035,0.551115 0.009,0.632428 0.06324,0.04517 0.0271,0.126485 -0.108416,0.234902 l -0.198763,0.180693 0.198763,0.144555 0.207798,0.144555 -0.207798,0.15359 c -0.15359,0.11745 -0.180694,0.180693 -0.09938,0.262006 0.08131,0.08131 0.04517,0.162624 -0.162624,0.334283 -0.207798,0.171659 -0.262006,0.28911 -0.225867,0.460769 0.01807,0.13552 0,0.225867 -0.07228,0.225867 -0.07228,0 -0.08131,0.09035 -0.04517,0.27104 0.05421,0.252972 0.04517,0.271041 -0.225867,0.271041 -0.343318,0 -0.4427,0.207798 -0.216833,0.460769 0.15359,0.171659 0.15359,0.180693 -0.0271,0.225867 -0.117451,0.03614 -0.180694,0.09938 -0.144555,0.180693 0.03614,0.09035 -0.0271,0.108417 -0.280075,0.06324 l -0.325249,-0.05421 v 0.361388 c 0,0.478838 -0.243936,0.776982 -0.867329,1.075127 -0.397526,0.189728 -0.487873,0.271041 -0.4427,0.397526 0.04517,0.144555 0,0.171659 -0.28911,0.198763 -0.343318,0.0271 -0.343318,0.0271 -0.316214,0.388491 0.01807,0.198762 0.15359,0.749879 0.316214,1.219684 0.262006,0.786016 0.28911,0.948641 0.271041,1.897284 -0.009,0.668564 -0.09938,1.490721 -0.243937,2.294807 -0.126485,0.695671 -0.234901,1.355203 -0.234901,1.472655 0,0.126486 0.126485,0.533045 0.27104,0.903467 0.225867,0.560151 0.28911,0.8854 0.352353,1.779835 0.03614,0.605321 0.05421,1.13837 0.03614,1.20161 -0.04517,0.126487 -0.334283,0.207801 -0.758913,0.207801 h -0.325277 z" />
  </g>
</svg>
